<svg id="AITO" xmlns="http://www.w3.org/2000/svg" xmlns:xlink="http://www.w3.org/1999/xlink" width="96" height="96"
  viewBox="0 0 96 96">
  <defs>
    <linearGradient id="linear-gradient" x1="0.5" x2="0.5" y2="1" gradientUnits="objectBoundingBox">
      <stop offset="0" stop-color="#fff" />
      <stop offset="1" stop-color="#fff" />
    </linearGradient>
  </defs>
  <path id="矩形"
    d="M28.4,0H67.6c9.876,0,13.457,1.028,17.067,2.959a20.131,20.131,0,0,1,8.375,8.375C94.972,14.944,96,18.526,96,28.4V67.6c0,9.876-1.028,13.457-2.959,17.067a20.131,20.131,0,0,1-8.375,8.375C81.056,94.972,77.474,96,67.6,96H28.4c-9.876,0-13.457-1.028-17.067-2.959a20.131,20.131,0,0,1-8.375-8.375C1.028,81.056,0,77.474,0,67.6V28.4c0-9.876,1.028-13.457,2.959-17.067a20.131,20.131,0,0,1,8.375-8.375C14.944,1.028,18.526,0,28.4,0Z"
    transform="translate(0 0)" fill-rule="evenodd" fill="url(#linear-gradient)" />
  <path id="矩形_-_轮廓" data-name="矩形 - 轮廓"
    d="M28.4,1c-9.539,0-13.073.957-16.6,2.841a19.093,19.093,0,0,0-7.965,7.965C1.957,15.329,1,18.863,1,28.4V67.6c0,9.539.957,13.073,2.841,16.6a19.093,19.093,0,0,0,7.965,7.965C15.329,94.043,18.863,95,28.4,95H67.6c9.539,0,13.073-.957,16.6-2.841a19.093,19.093,0,0,0,7.965-7.965C94.043,80.671,95,77.137,95,67.6V28.4c0-9.539-.957-13.073-2.841-16.6a19.093,19.093,0,0,0-7.965-7.965C80.671,1.957,77.137,1,67.6,1H28.4m0-1H67.6c9.876,0,13.457,1.028,17.067,2.959a20.131,20.131,0,0,1,8.375,8.375C94.972,14.944,96,18.526,96,28.4V67.6c0,9.876-1.028,13.457-2.959,17.067a20.131,20.131,0,0,1-8.375,8.375C81.056,94.972,77.474,96,67.6,96H28.4c-9.876,0-13.457-1.028-17.067-2.959a20.131,20.131,0,0,1-8.375-8.375C1.028,81.056,0,77.474,0,67.6V28.4c0-9.876,1.028-13.457,2.959-17.067a20.131,20.131,0,0,1,8.375-8.375C14.944,1.028,18.526,0,28.4,0Z"
    transform="translate(0 0)" fill="#e5e5e5" />
  <path id="形状结合"
    d="M72.908,61.623V79.047a4.847,4.847,0,0,0,1.422,3.429h0l3.82,3.816a1.93,1.93,0,0,0,2.727,0h0l3.82-3.816a4.848,4.848,0,0,0,1.422-3.429h0V61.623h9.908V77.941a7.516,7.516,0,0,1-2.2,5.317h0L82.668,94.4a3.935,3.935,0,0,1-6.309,0h0L65.2,83.258A7.516,7.516,0,0,1,63,77.941h0V61.623ZM92.7,55.778a6.685,6.685,0,0,1,1.06.066,2.825,2.825,0,0,1,1.007.346,2,2,0,0,1,1.014,1.69,1.93,1.93,0,0,1-.254.982,2.07,2.07,0,0,1-.736.746,2.8,2.8,0,0,1-1.016.358,6.7,6.7,0,0,1-1.074.068h0a6.7,6.7,0,0,1-1.074-.068,2.8,2.8,0,0,1-1.017-.358,2.072,2.072,0,0,1-.736-.746,1.93,1.93,0,0,1-.254-.982,2,2,0,0,1,1.014-1.69,2.824,2.824,0,0,1,1.007-.346A6.685,6.685,0,0,1,92.7,55.778Zm-16.586.177v3.9H74.863v-3.9Zm10.063,0v1.115h-2.5v2.786H82.425V57.071h-2.5V55.956ZM67.2,56.138a.567.567,0,0,1,.4.167q1.775,1.775,3.551,3.547h-1.73q-1.085-1.084-2.17-2.167a.077.077,0,0,0-.109,0q-1.086,1.082-2.17,2.167h-1.73L66.8,56.305h0A.567.567,0,0,1,67.2,56.138Zm25.495.687a4.851,4.851,0,0,0-.782.052,1.821,1.821,0,0,0-.639.213.936.936,0,0,0-.5.8.872.872,0,0,0,.117.449,1.038,1.038,0,0,0,.37.369,1.79,1.79,0,0,0,.643.22,5.869,5.869,0,0,0,1.588,0,1.791,1.791,0,0,0,.643-.22,1.038,1.038,0,0,0,.37-.37.873.873,0,0,0,.117-.449.936.936,0,0,0-.5-.8,1.82,1.82,0,0,0-.64-.214A4.883,4.883,0,0,0,92.7,56.826Zm-13.184-37a4.177,4.177,0,0,1,3.155,1.583L93.823,32.555a7.517,7.517,0,0,1,2.2,5.317V54.19H86.119V36.766A4.848,4.848,0,0,0,84.7,33.337l-3.82-3.816a1.93,1.93,0,0,0-2.727,0l-3.82,3.816a4.847,4.847,0,0,0-1.422,3.429V54.19H63V37.872a7.516,7.516,0,0,1,2.2-5.317L76.359,21.412A4.177,4.177,0,0,1,79.514,19.829Z"
    transform="translate(-31.514 -9.906)" fill-rule="evenodd" />
</svg>