<svg width="150" height="53" viewBox="0 0 150 53" fill="none" xmlns="http://www.w3.org/2000/svg">
    <rect width="150" height="53" fill="white" />
    <path fill-rule="evenodd" clip-rule="evenodd"
        d="M123.396 46.4059C118.823 46.4059 114.612 44.87 111.246 42.292C114.681 37.9492 116.736 32.4726 116.736 26.5143C116.736 20.5555 114.681 15.0789 111.246 10.7361C114.612 8.15861 118.823 6.6222 123.396 6.6222C134.421 6.6222 143.358 15.5279 143.358 26.5143C143.358 37.5002 134.421 46.4059 123.396 46.4059M78.9818 42.292C82.4173 37.9492 84.4723 32.4726 84.4723 26.5143C84.4723 20.5555 82.4173 15.0789 78.9818 10.7361C82.3479 8.15861 86.5587 6.6222 91.1324 6.6222C95.7056 6.6222 99.9169 8.15809 103.283 10.7361C99.8475 15.0784 97.7925 20.5555 97.7925 26.5143C97.7925 32.4726 99.8475 37.9497 103.283 42.292C99.9169 44.87 95.7056 46.4059 91.1324 46.4059C86.5587 46.4059 82.3479 44.87 78.9818 42.292M46.7171 42.292C50.1521 37.9497 52.2076 32.4726 52.2076 26.5143C52.2076 20.5555 50.1521 15.0784 46.7171 10.7361C50.0832 8.15809 54.294 6.6222 58.8677 6.6222C63.4409 6.6222 67.6522 8.15861 71.0183 10.7361C67.5828 15.0789 65.5278 20.5555 65.5278 26.5143C65.5278 32.4726 67.5828 37.9492 71.0183 42.292C67.6522 44.87 63.4409 46.4059 58.8677 46.4059C54.294 46.4059 50.0832 44.87 46.7171 42.292M6.64211 26.5143C6.64211 15.5279 15.5796 6.6222 26.604 6.6222C31.1772 6.6222 35.3886 8.15809 38.7546 10.7361C35.3191 15.0789 33.2641 20.5555 33.2641 26.5143C33.2641 32.4726 35.3191 37.9497 38.7546 42.292C35.3886 44.87 31.1772 46.4059 26.604 46.4059C15.5796 46.4059 6.64211 37.5002 6.64211 26.5143M42.7355 38.2249C40.329 34.9393 38.9058 30.8935 38.9058 26.5143C38.9058 22.135 40.329 18.0887 42.7355 14.8031C45.1419 18.0887 46.5651 22.135 46.5651 26.5143C46.5651 30.8935 45.1419 34.9393 42.7355 38.2249M75.0001 38.2245C72.5937 34.9389 71.1704 30.8932 71.1704 26.5144C71.1704 22.1352 72.5937 18.0894 75.0001 14.8038C77.406 18.0894 78.8293 22.1352 78.8293 26.5144C78.8293 30.8932 77.406 34.9389 75.0001 38.2245M107.264 38.2249C104.858 34.9393 103.435 30.8935 103.435 26.5143C103.435 22.135 104.858 18.0887 107.264 14.8031C109.67 18.0887 111.094 22.135 111.094 26.5143C111.094 30.8935 109.67 34.9393 107.264 38.2249M123.396 1C117.28 1 111.667 3.13942 107.264 6.70494C102.86 3.13942 97.2477 1 91.1322 1C85.0162 1 79.4035 3.13942 75 6.70494C70.5965 3.13942 64.9838 1 58.8678 1C52.7518 1 47.1391 3.13942 42.7361 6.70494C38.3326 3.13942 32.7199 1 26.6039 1C12.463 1 1 12.4229 1 26.5143C1 40.6058 12.463 52.0287 26.6039 52.0287C32.7199 52.0287 38.3326 49.8882 42.7361 46.3232C47.1391 49.8882 52.7518 52.0287 58.8678 52.0287C64.9838 52.0287 70.5965 49.8882 75 46.3232C79.4035 49.8882 85.0162 52.0287 91.1322 52.0287C97.2477 52.0287 102.86 49.8882 107.264 46.3232C111.667 49.8882 117.28 52.0287 123.396 52.0287C137.537 52.0287 149 40.6058 149 26.5143C149 12.4229 137.537 1 123.396 1"
        fill="black" />
</svg>