<svg xmlns="http://www.w3.org/2000/svg" xmlns:xlink="http://www.w3.org/1999/xlink" width="10em" height="10em"
    viewBox="0 0 76 63" class="HeaderForPC_graphic-logo__3C7QW">
    <defs>
        <path id="graphic-logo_svg__a" d="M0 0h76v62.122H0z"></path>
    </defs>
    <g fill="none" fill-rule="evenodd">
        <mask id="graphic-logo_svg__b" fill="#fff">
            <use xlink:href="#graphic-logo_svg__a"></use>
        </mask>
        <path fill="#000"
            d="m23.881 6.193 13.37 43.505-13.37 6.215zM51.85 3.297 38.1 48.227 24.327 3.297zm.468 52.616-13.37-6.215 13.37-43.505zm-26.294.29L38.1 50.766l12.076 5.435zm-2.656 1.314h29.464c.535 0 .803-.268.803-.802V2.785c0-.535-.268-.803-.803-.803H23.368c-.536 0-.804.268-.804.802v53.93c0 .535.268.803.804.803"
            mask="url(#graphic-logo_svg__b)"></path>
    </g>
</svg>