<svg id="Logo" xmlns="http://www.w3.org/2000/svg" viewBox="0 0 397.26 137.68"><defs><style>.cls-1{fill:#d0043c;}</style></defs><path class="cls-1" d="M353.33,114.41c0,9.54-3.76,13-13.16,13.17-9,.13-16.26.13-23.38.13-6.86,0-22.58-.13-22.58-.13-9.27,0-12.22-4-12.22-10.21v-6.15c1.43,0,5.84-.14,10.4-.14,5,0,10.27.14,11.9.14,0,.31,0,1,0,1.32.26,2.36,1.6,2.72,4.12,2.72,0,0,11.55.14,9.53.14-1.74,0,9-.14,9-.14,3.09,0,4.16-1.21,4.3-4.3,0,0,.13-3.67.13-4.48s-.13-4-.13-4c-.14-2.82-.94-3.76-3.77-3.76H294.75c-9.4,0-13-3.62-13.17-13.16,0,0-.13-6.71-.13-7.25,0-2.15.13-7,.13-7,.14-9.81,3.77-13.17,13.17-13.17,0,0,15.18-.14,22.17-.14s24.32.14,24.32.14c8.06,0,11.55,4.84,11.55,11.55v5c-3.09,0-7.68.14-11.92.14-4,0-7.72-.14-9.57-.14,0-.3,0-1,0-1.28-.13-2.21-.84-2.8-3.48-2.91,0,0-6.72-.28-10.74-.28-2.83,0-10.49.28-10.49.28-2.95.13-3.62.8-3.76,3.62,0,0-.13,2.86-.13,4.21s.13,3.51.13,3.51c.14,3,1.48,4,4.3,4l33.06.27c9.4.13,13.16,3.75,13.16,13.16v15.16Zm-83,0c0,9.41-3.76,13.17-13.17,13.17,0,0-16.26.13-23.65.13s-23.37-.13-23.37-.13c-9.27,0-13-3.76-13-13.17,0,0-.14-27.41-.14-23s.14-20.15.14-20.15c0-9.41,3.76-13.17,13-13.17,0,0,18-.14,23.37-.14,5.65,0,23.65.14,23.65.14,9.41,0,13.17,3.76,13.17,13.17,0,0,.14,15.45.14,20.15,0,5-.14,23-.14,23M168.86,74.51c0-.39,0-1.18-.06-1.53-.24-2.07-1.26-2.54-3.57-2.54H155.7c-2.83,0-3.77.67-3.77,3.62v49.76c0,3-.94,3.76-3.76,3.76,0,0-5.78.13-7.93.13s-7.12-.13-7.12-.13c-3,0-3.76-.94-3.76-3.76V61.88c0-3,.94-3.76,3.76-3.76,0,0,13.84-.14,24-.14,9.81,0,21.9.14,21.9.14,10,0,12.36,3.09,12.36,11.82v4.57H168.86Zm-51.59,39.9c0,9.41-3.76,13.17-13.17,13.17,0,0-18.54.13-25,.13-5.77,0-23.78-.13-23.78-.13-9.4,0-13.16-3.76-13.16-13.17V29.9c0-2.82,1.07-3.76,3.76-3.76H61c2.83,0,3.76.94,3.76,3.76V54.22c0,2.82,1,3.76,3.77,3.76l35.6.14c9.54,0,13.17,3.76,13.17,13.17,0,0,.13,14.1.13,20.15s-.13,23-.13,23m321-21.24c0,5-2.15,5.91-5.64,5.91H389.88c-2.82,0-3.77.81-3.77,3.76v7.42c0,2.95,1.62,4.29,4.58,4.29h21.76c14.45,0,25.79-.14,25.79-.14,0,9.41-3.76,13.17-13,13.17,0,0-17.06.13-24.85.13-6.45,0-23.11-.13-23.11-.13-9.41,0-13.17-3.63-13.17-13.17,0,0-.14-20.82-.14-22.3,0-2.82.14-20.82.14-20.82,0-9.41,3.76-13.17,13.17-13.17,0,0,17.19-.14,23.51-.14,6.85,0,24.45.14,24.45.14,9.27,0,12.9,3.63,13,13.17,0,0,.14,5.65.14,10.87,0,4.84-.14,11.15-.14,11.15ZM401.29,70.3c-5.5,0-11.41.14-11.41.14-2.82,0-3.77.8-3.77,3.62v8.8c0,2.82.95,3.76,3.77,3.76,0,0,10.07.14,11.41.14,4.17,0,8.33,0,12.5-.14,2.82,0,3.63-.94,3.76-3.76,0,0,.14-2.44.14-4.19,0-2-.14-4.61-.14-4.61-.13-2.82-.67-3.62-3.76-3.62,0,0-7.39-.14-12.5-.14M247.73,74.06c0-2.82-.94-3.62-3.76-3.62,0,0-6.32-.14-9.95-.14s-10.75.14-10.75.14c-2.81,0-3.75.93-3.75,3.62,0,0-.14,12.54-.14,17.38,0,5.37.14,20.06.14,20.06,0,3,.94,3.76,3.75,3.76,0,0,6.85.14,10.08.14,3.5,0,10.62-.14,10.62-.14,2.82,0,3.76-.94,3.76-3.76,0,0,.13-19.39.13-20.06,0-3-.13-11.42-.13-16.53Zm-152.9,0c0-2.82-.94-3.62-3.76-3.62,0,0-7.39-.14-10.75-.14-2.82,0-11.82.14-11.82.14-2.82,0-3.77.93-3.77,3.62,0,0-.13,13.35-.13,17.38,0,4.56.13,20.06.13,20.06,0,3,1,3.76,3.77,3.76,0,0,8.87.14,10.75.14s8.19-.14,11.82-.14c2.82,0,3.76-.94,3.76-3.76,0,0,.14-16.3.14-20.06,0-3.23,0-11.42-.14-16.53Z" transform="translate(-42.17 -26.14)"/><polygon class="cls-1" points="15.92 134 3.49 134 3.49 128.28 15.29 128.28 15.29 125.09 3.49 125.09 3.49 120.03 15.66 120.03 15.66 116.85 0.08 116.85 0.08 137.19 15.92 137.19 15.92 134"/><polygon class="cls-1" points="27.58 129.39 33.57 122.09 29.27 122.09 25.48 126.85 21.76 122.09 17.38 122.09 23.26 129.39 16.94 137.19 21.21 137.19 25.37 131.9 29.5 137.19 33.99 137.19 27.58 129.39"/><path class="cls-1" d="M92.19,157.79l.1-.41H88.86l-.06.25c-.56,2.29-1.69,3.22-3.87,3.22-2.85,0-4.48-1.85-4.48-5.07s1.63-5.08,4.48-5.08c2.2,0,3.52.94,3.81,2.73l.05.27H92.2l-.06-.37c-.53-3.51-3.3-5.6-7.39-5.6-4.69,0-7.71,3.19-7.71,8.13,0,3.85,2,8,7.73,8C88.77,163.82,91.12,161.9,92.19,157.79Z" transform="translate(-42.17 -26.14)"/><path class="cls-1" d="M110,158.73l.17-.44h-3.44l-.08.19a4.22,4.22,0,0,1-4.1,2.37,4.57,4.57,0,0,1-4.66-3.92h12.5v-.69c0-6.28-4.15-8.51-7.71-8.51-5,0-8.23,3.16-8.23,8.05s3.23,8,8.23,8A7.74,7.74,0,0,0,110,158.73Zm-7.45-8a4.18,4.18,0,0,1,4.36,3.43H98A4.49,4.49,0,0,1,102.56,150.7Z" transform="translate(-42.17 -26.14)"/><rect class="cls-1" x="71.28" y="116.68" width="3.25" height="20.5"/><rect class="cls-1" x="78.09" y="116.68" width="3.25" height="20.5"/><path class="cls-1" d="M142,158.73l.17-.44h-3.44l-.09.19a4.2,4.2,0,0,1-4.09,2.37,4.56,4.56,0,0,1-4.66-3.92h12.5v-.69c0-6.28-4.16-8.51-7.71-8.51-5,0-8.23,3.16-8.23,8.05s3.23,8,8.23,8A7.74,7.74,0,0,0,142,158.73Zm-7.45-8a4.18,4.18,0,0,1,4.36,3.43H130A4.51,4.51,0,0,1,134.57,150.7Z" transform="translate(-42.17 -26.14)"/><path class="cls-1" d="M159.8,153.16c0-3.45-2.2-5.43-6-5.43a6.48,6.48,0,0,0-5.06,2.09v-1.59h-3.25v15.1h3.25v-8.66a3.86,3.86,0,0,1,4.15-4c2.49,0,3.7,1,3.7,3v9.62h3.25Z" transform="translate(-42.17 -26.14)"/><path class="cls-1" d="M177.91,157.79l.11-.41h-3.43l-.06.25c-.57,2.29-1.69,3.22-3.87,3.22-2.85,0-4.49-1.85-4.49-5.07s1.64-5.08,4.49-5.08c2.19,0,3.51.94,3.81,2.73l.05.27h3.41l-.06-.37c-.53-3.51-3.3-5.6-7.39-5.6-4.69,0-7.71,3.19-7.71,8.13,0,3.85,2,8,7.73,8C174.5,163.82,176.85,161.9,177.91,157.79Z" transform="translate(-42.17 -26.14)"/><path class="cls-1" d="M195.74,158.73l.17-.44h-3.44l-.09.19a4.2,4.2,0,0,1-4.09,2.37,4.56,4.56,0,0,1-4.66-3.92h12.5v-.69c0-6.28-4.16-8.51-7.71-8.51-5,0-8.23,3.16-8.23,8.05s3.23,8,8.23,8A7.74,7.74,0,0,0,195.74,158.73Zm-7.45-8a4.19,4.19,0,0,1,4.36,3.43h-8.91A4.51,4.51,0,0,1,188.29,150.7Z" transform="translate(-42.17 -26.14)"/><rect class="cls-1" x="166.73" y="116.68" width="3.25" height="3.68"/><rect class="cls-1" x="166.73" y="122.09" width="3.25" height="15.1"/><path class="cls-1" d="M230.06,153.16c0-3.45-2.21-5.43-6.05-5.43a6.46,6.46,0,0,0-5,2.09v-1.59h-3.25v15.1H219v-8.66a3.85,3.85,0,0,1,4.14-4c2.5,0,3.71,1,3.71,3v9.62h3.25Z" transform="translate(-42.17 -26.14)"/><polygon class="cls-1" points="224.74 116.85 220.38 116.85 213.16 132.71 206 116.85 201.6 116.85 201.6 137.19 205 137.19 205 122.27 211.72 137.19 214.59 137.19 221.33 121.96 221.33 137.19 224.74 137.19 224.74 116.85"/><path class="cls-1" d="M285.84,158.73l.17-.44h-3.44l-.09.19a4.22,4.22,0,0,1-4.1,2.37,4.58,4.58,0,0,1-4.66-3.92h12.5v-.69c0-6.28-4.15-8.51-7.71-8.51-5,0-8.23,3.16-8.23,8.05s3.23,8,8.23,8A7.75,7.75,0,0,0,285.84,158.73Zm-7.46-8a4.2,4.2,0,0,1,4.37,3.43h-8.91A4.49,4.49,0,0,1,278.38,150.7Z" transform="translate(-42.17 -26.14)"/><path class="cls-1" d="M303.81,157.79l.11-.41h-3.43l-.06.25c-.57,2.29-1.69,3.22-3.87,3.22-2.85,0-4.49-1.85-4.49-5.07s1.64-5.08,4.49-5.08c2.2,0,3.51.94,3.81,2.73l.05.27h3.41l-.06-.37c-.53-3.51-3.3-5.6-7.39-5.6-4.69,0-7.71,3.19-7.71,8.13,0,3.85,2,8,7.73,8C300.4,163.82,302.75,161.9,303.81,157.79Z" transform="translate(-42.17 -26.14)"/><path class="cls-1" d="M321,153.16c0-3.45-2.2-5.43-6.05-5.43a6.46,6.46,0,0,0-5.05,2.09v-7h-3.25v20.51h3.25v-8.66a3.85,3.85,0,0,1,4.14-4c2.5,0,3.71,1,3.71,3v9.62H321Z" transform="translate(-42.17 -26.14)"/><path class="cls-1" d="M340.33,160.64l-.41.12a3.26,3.26,0,0,1-.82.09c-.6,0-.85-.26-.85-.91v-7.78c0-2.85-2.34-4.43-6.59-4.43-4.49,0-6.74,1.69-7.08,5.31l0,.36h3.12v-.31c.06-1.7,1.37-2.56,3.89-2.56s3.6.61,3.6,2.05c0,.93-.49,1.26-2.08,1.41l-3,.33c-4.41.53-6.13,1.88-6.13,4.82,0,1.41.57,4.68,5.86,4.68a8.55,8.55,0,0,0,5.61-1.95,2.25,2.25,0,0,0,2.53,1.62,12.34,12.34,0,0,0,2.08-.17l.27,0Zm-5.17-4.54v1.19c0,2.13-2.19,3.73-5.09,3.73-1.7,0-2.84-.79-2.84-2s.71-1.74,2.81-2.05l2.94-.39A6.94,6.94,0,0,0,335.16,156.1Z" transform="translate(-42.17 -26.14)"/><path class="cls-1" d="M350.79,160.6l-.39.07a9.31,9.31,0,0,1-1.73.18c-1.48,0-1.79-.49-1.79-1.24V151h3.91v-2.8h-3.91v-4.44h-3.25v4.44h-2.8V151h2.8v9.05c0,2.45,1.36,3.74,3.92,3.74a14.26,14.26,0,0,0,3-.2l.26-.05Z" transform="translate(-42.17 -26.14)"/><path class="cls-1" d="M356.4,155.67c0-2.77,1.51-4.42,4-4.42a5.65,5.65,0,0,1,1.76.26l.42.12V148l-.24-.06a5.17,5.17,0,0,0-1.57-.18,5.24,5.24,0,0,0-4.41,2.41v-1.91h-3.25v15.1h3.25Z" transform="translate(-42.17 -26.14)"/><path class="cls-1" d="M380.63,155.78c0-4.89-3.23-8.05-8.22-8.05s-8.23,3.16-8.23,8.05,3.23,8,8.23,8S380.63,160.66,380.63,155.78Zm-8.22-5.08c3.55,0,4.82,2.62,4.82,5.08s-1.27,5.07-4.82,5.07-4.83-2.62-4.83-5.07S368.85,150.7,372.41,150.7Z" transform="translate(-42.17 -26.14)"/><path class="cls-1" d="M398,153.16c0-3.45-2.2-5.43-6-5.43a6.48,6.48,0,0,0-5.06,2.09v-1.59H383.6v15.1h3.25v-8.66a3.86,3.86,0,0,1,4.15-4c2.49,0,3.7,1,3.7,3v9.62H398Z" transform="translate(-42.17 -26.14)"/><rect class="cls-1" x="359.35" y="116.68" width="3.25" height="3.68"/><rect class="cls-1" x="359.35" y="122.09" width="3.25" height="15.1"/><path class="cls-1" d="M422.88,157.79l.1-.41h-3.43l-.06.25c-.56,2.29-1.69,3.22-3.87,3.22-2.85,0-4.49-1.85-4.49-5.07s1.64-5.08,4.49-5.08c2.2,0,3.52.94,3.81,2.73l.05.27h3.41l-.06-.37c-.53-3.51-3.3-5.6-7.39-5.6-4.69,0-7.71,3.19-7.71,8.13,0,3.85,2,8,7.73,8C419.46,163.82,421.81,161.9,422.88,157.79Z" transform="translate(-42.17 -26.14)"/><path class="cls-1" d="M439.42,158.56c0-2.31-1.6-3.63-5-4.15l-3.7-.53c-1.83-.24-2-.79-2-1.47,0-1.74,2.5-1.88,3.26-1.88,2.24,0,3.68.92,3.76,2.4l0,.3H439l0-.35c-.14-1.92-1.24-5.15-7-5.15-4.09,0-6.54,1.86-6.54,5,0,2.61,2.05,3.85,4,4.15l4.29.61c2.12.31,2.3.91,2.3,1.6,0,1.23-1.4,1.94-3.84,1.94-3.68,0-4-2-4-2.57v-.32h-3.28l0,.34c.16,2.44,1.57,5.35,7.29,5.35C436.88,163.82,439.42,162,439.42,158.56Z" transform="translate(-42.17 -26.14)"/></svg>