<?xml version="1.0" encoding="utf-8"?>
<!-- Generator: Adobe Illustrator 25.0.0, SVG Export Plug-In . SVG Version: 6.00 Build 0)  -->
<svg version="1.1" id="图层_1" xmlns="http://www.w3.org/2000/svg" xmlns:xlink="http://www.w3.org/1999/xlink" x="0px" y="0px"
	 viewBox="0 0 208 94" style="enable-background:new 0 0 208 94;" xml:space="preserve">
<style type="text/css">
	.st0{fill:#FFFFFF;}
</style>
<g>
	<path class="st0" d="M51.05,33.29c-2.74-4.13-7.43-4.94-10.61-5.01c-2.79-0.06-14.91-0.08-21.97-0.08c-13.9-0.01-5.95,0-18.47,0
		v6.64c14.86,0,32.51-0.03,40.23,0.08c1.38,0.02,2.74,0.16,3.83,1.12c1.01,0.9,1.37,2.31,0.92,3.53c-0.73,1.98-2.74,2.47-4.74,2.5
		c-3.06,0.05-11.47,0.07-17.75,0.07C7.09,42.17,13.75,42.16,0,42.16v6.62c14.85,0,32.53-0.03,40.23,0.08
		c2.4,0.03,4.94,0.87,4.94,3.54c0,2.67-2.54,3.55-4.94,3.59C32.55,56.11,14.86,56.08,0,56.08v6.63c14.91,0,34.42,0.05,40.44-0.09
		c3.18-0.07,7.87-0.88,10.61-5.01c2.57-3.88,1.94-8.93-1.43-12.16C52.99,42.21,53.62,37.17,51.05,33.29z"/>
	<path class="st0" d="M172.4,32.19c-4.54-3.25-9.46-3.72-13.46-3.81c-3.94-0.09-9.87-0.13-15.12-0.15c-12.8-0.05-5.1-0.03-17.3-0.03
		v6.66c12.97,0,22.07-0.11,32.09,0.18c2.94,0.08,6.1,0.39,8.94,2.37c2.69,1.87,4.29,4.85,4.29,8.06c0,3.21-1.55,6.2-4.24,8.06
		c-2.84,1.97-6,2.28-8.94,2.36c-10.02,0.28-19.12,0.17-32.09,0.17l-0.04,6.65c13.05,0,22.43,0.05,32.42-0.18
		c3.99-0.09,8.92-0.55,13.46-3.81c4.3-3.09,6.91-7.94,6.91-13.27C179.31,40.12,176.7,35.27,172.4,32.19z"/>
	<g>
		<path class="st0" d="M72.9,43.1c-3.48-0.07-4.58-1.2-4.61-4.67c-0.02-3.2-0.01-6.99-0.01-10.24h-7.66c0,3.28-0.06,9.94,0.07,13.15
			c0.25,6.25,2.3,8.19,8.68,8.41c4.42,0.15,7.94,0.1,14.05,0.09v-6.69C78.51,43.16,76.52,43.17,72.9,43.1z"/>
		<path class="st0" d="M110.89,38.56c-0.02,3.37-1.12,4.48-4.61,4.54c-1.66,0.03-6.03,0.05-9.62,0.06v0c-0.01,0-0.02,0-0.03,0v0
			c-3.67,0-7.59-0.01-9.89-0.01v19.56h9.01V49.84c0.27,0,0.57,0,0.88,0v0c0.01,0,0.02,0,0.03,0v0.01c4.69,0,10.54-0.02,12.76-0.09
			c6.77-0.21,8.83-2.12,9.08-8.42c0.03-0.84,0.05-1.91,0.07-3.08V28.2h-7.66C110.9,31.53,110.91,35.27,110.89,38.56z"/>
	</g>
</g>
</svg>
