<svg width="137" height="23" viewBox="0 0 137 23" fill="none" xmlns="http://www.w3.org/2000/svg">
    <path fill-rule="evenodd" clip-rule="evenodd" d="M16.1821 21.3549C14.3721 20.2207 13.0381 16.3066 13.0381 11.6551C13.0381 11.4844 13.0388 11.3159 13.0431 11.1481L13.0446 11.1503C8.00932 10.3588 4.37147 8.19039 4.27788 5.62518L4.26348 5.65543C3.03166 7.18721 2.32828 8.95809 2.32828 10.8449C2.32828 16.3974 8.42113 20.9466 16.1497 21.3492L16.1821 21.3549ZM0 11.2496C0 5.03752 7.72926 0 17.2634 0C26.7983 0 34.5275 5.03752 34.5275 11.2496C34.5275 17.4625 26.7983 22.5 17.2634 22.5C7.72926 22.5 0 17.4625 0 11.2496ZM17.2641 1.62324C19.105 1.62324 20.6709 4.41675 21.2512 8.31426L21.2526 8.30778C24.8343 7.75037 27.3411 6.46417 27.3411 4.96695C27.3411 2.95842 22.8293 1.33158 17.2641 1.33158C11.6997 1.33158 7.18787 2.95842 7.18787 4.96695C7.18787 6.46417 9.6947 7.74965 13.2757 8.30778L13.2778 8.31426C13.8581 4.41675 15.424 1.62324 17.2641 1.62324ZM18.3786 21.3485C26.1071 20.9459 32.2007 16.3966 32.2007 10.8442C32.2007 8.95737 31.4966 7.18649 30.2655 5.65471L30.2504 5.62446C30.1575 8.18967 26.5197 10.3581 21.4837 11.1495L21.4859 11.1474C21.4895 11.3152 21.4909 11.4837 21.4909 11.6544C21.4909 16.3059 20.1561 20.22 18.3469 21.3542L18.3786 21.3485ZM17.2641 8.60305C18.0632 8.604 18.8619 8.56988 19.6579 8.50078L19.6572 8.5015C19.2756 6.00398 18.3484 4.2403 17.2649 4.2403C16.1813 4.2403 15.2548 6.00398 14.8725 8.5015L14.8718 8.50078C15.6674 8.56953 16.4656 8.60366 17.2641 8.60305ZM17.2641 17.8542C18.65 17.8542 19.781 14.9693 19.8408 11.3519L19.848 11.3541C18.1293 11.5125 16.3997 11.5125 14.681 11.3541L14.6882 11.3519C14.7479 14.9693 15.8783 17.8542 17.2641 17.8542ZM88.0932 11.2496C88.0932 6.50161 91.9419 2.65163 96.6885 2.65163C101.437 2.65163 105.285 6.50161 105.285 11.2496C105.285 15.9991 101.436 19.8476 96.6885 19.8476C91.9419 19.8476 88.0932 15.9991 88.0932 11.2496ZM96.6885 16.6948C99.3393 16.6948 101.489 14.2563 101.489 11.2489C101.489 8.24224 99.3393 5.80378 96.6885 5.80378C94.0377 5.80378 91.8894 8.24224 91.8894 11.2489C91.8894 14.257 94.0384 16.6948 96.6885 16.6948ZM115.039 6.23372V19.4573H111.416V6.23372H111.429H106.364V3.24432H120.091V6.23372H115.039ZM124.472 15.8097L124.47 15.8133L123.08 19.458H118.849L125.536 3.24432H130.045L136.731 19.458H132.501L131.112 15.8133L131.107 15.8097H124.472ZM127.791 13.0731H130.07L130.068 13.0738L127.806 7.13968H127.775L125.512 13.0738L125.511 13.0731H127.791ZM48.2769 6.23372V19.4573H44.6549V6.23372H44.6679H39.6024V3.24432H53.3295V6.23372H48.2769ZM54.256 11.2496C54.256 6.50161 58.1048 2.65163 62.8528 2.65163C67.6001 2.65163 71.4489 6.50161 71.4489 11.2496C71.4489 15.9991 67.6001 19.8476 62.8528 19.8476C58.1048 19.8476 54.256 15.9991 54.256 11.2496ZM62.8528 16.6948C65.5029 16.6948 67.6526 14.2563 67.6526 11.2489C67.6526 8.24224 65.5029 5.80378 62.8528 5.80378C60.202 5.80378 58.053 8.24224 58.053 11.2489C58.053 14.257 60.202 16.6948 62.8528 16.6948ZM79.7699 19.4573H81.6065V13.3014L87.9254 3.24432H83.6958L79.7699 10.0592L75.8456 3.24432H71.6159L77.9341 13.3014V19.4573H79.7699Z" fill="#EB0A1E"/>
</svg>
