<svg id="Ebene_1" data-name="Ebene 1" xmlns="http://www.w3.org/2000/svg" viewBox="0 0 169.19 31.18"><defs><style>.cls-1{fill:#ffb300;fill-rule:evenodd;}</style></defs><title>04_Logo-Fehrer-RGB</title><path class="cls-1" d="M164.81,6.67a3.89,3.89,0,0,1,3.81,4v3h-5.7v-1h-9.23V30.42H148V6.67Z"/><path class="cls-1" d="M55.75,21.55V10.67a3.9,3.9,0,0,0-3.8-4h-18a3.89,3.89,0,0,0-3.8,4V26.47a3.89,3.89,0,0,0,3.8,4H55.75V24.49H35.81V21.55Zm-19.94-9H50.05v3H35.81Z"/><path class="cls-1" d="M109.33,6.65a3.89,3.89,0,0,1,3.81,4v3h-5.7v-1H98.19V30.43H92.5V6.65Z"/><path class="cls-1" d="M61.21,30.43V.75h6.65V6.67h15.2a3.91,3.91,0,0,1,3.8,4V30.43h-5.7V12.55H67.86V30.43Z"/><path class="cls-1" d="M142.12,21.54V10.66a3.89,3.89,0,0,0-3.79-4h-18a3.89,3.89,0,0,0-3.8,4V26.46a3.89,3.89,0,0,0,3.81,4h21.82V24.48H122.18V21.54Zm-19.94-9h14.25v3H122.18Z"/><path class="cls-1" d="M4.73.75H27.52V6.67H6.63v9h18v5.94h-18v8.87H.93V4.72A3.89,3.89,0,0,1,4.73.75Z"/><path d="M91.56,31.18V5.91h17.58a4.63,4.63,0,0,1,4.56,4.7v3.74H106.5v-1H98.76V31.18ZM93.06,7.4V29.68h4.2V11.84H108v1h4.2V10.61a3.14,3.14,0,0,0-3.06-3.21Z"/><path d="M50.62,16.37H34.88V11.85H50.62Zm-14.25-1.5H49.12V13.35H36.37Z"/><path d="M56.32,31.18H33.74a4.64,4.64,0,0,1-4.56-4.71V10.64a4.64,4.64,0,0,1,4.55-4.72h18a4.66,4.66,0,0,1,4.55,4.75l0,11.63H36.37v1.44h20ZM33.74,7.42a3.14,3.14,0,0,0-3.05,3.22V26.47a3.14,3.14,0,0,0,3.06,3.21H54.81V25.24H34.88V20.8H54.82V10.66a3.16,3.16,0,0,0-3-3.24Z"/><path d="M147,31.17V5.92h17.59a4.64,4.64,0,0,1,4.56,4.71l0,3.72H162v-1h-7.74V31.17Zm1.5-23.75V29.67h4.21V11.84h10.73v1h4.2V10.62a3.14,3.14,0,0,0-3.06-3.2Z"/><path d="M87.42,31.18h-7.2V13.3H68.43V31.18H60.28V0h8.15V5.92H82.88a4.66,4.66,0,0,1,4.54,4.76Zm-5.7-1.5h4.2v-19a3.16,3.16,0,0,0-3-3.26H66.93V1.5H61.78V29.68h5.15V11.8H81.72Z"/><path d="M137,16.36H121.25V11.84H137Zm-14.24-1.5h12.74V13.34H122.75Z"/><path d="M142.69,31.17H120.11a4.63,4.63,0,0,1-4.55-4.71V10.63a4.65,4.65,0,0,1,4.55-4.72h18a4.66,4.66,0,0,1,4.55,4.75V22.29H122.75v1.44h19.94ZM120.11,7.41a3.14,3.14,0,0,0-3,3.22V26.46a3.14,3.14,0,0,0,3,3.21h21.08V25.23H121.25V20.79h19.94V10.66a3.16,3.16,0,0,0-3-3.25Z"/><path d="M7.2,31.18H0V4.72A4.64,4.64,0,0,1,4.54,0H28.09V7.42H7.2v7.45h18v7.44H7.2Zm-5.7-1.5H5.7V20.81h18V16.37H5.7V5.92H26.59V1.5h-22a3.14,3.14,0,0,0-3,3.22Z"/></svg>