<svg width="55" height="55" viewBox="0 0 77 68" fill="none" xmlns="http://www.w3.org/2000/svg" class="t_logo">
                <path d="M0 67.5708V59.022C0 58.7879 0.190796 58.5967 0.424425 58.5967H1.58867C1.8223 58.5967 2.0131 58.7879 2.0131 59.022V61.765C2.0131 61.9991 2.20389 62.1903 2.43752 62.1903H12.3239C12.5575 62.1903 12.7483 61.9991 12.7483 61.765V59.022C12.7483 58.7879 12.9391 58.5967 13.1727 58.5967H14.337C14.5706 58.5967 14.7614 58.7879 14.7614 59.022V67.5708C14.7614 67.8049 14.5706 67.9961 14.337 67.9961H13.1611C12.9274 67.9961 12.7366 67.8049 12.7366 67.5708V64.625C12.7366 64.3909 12.5458 64.1997 12.3122 64.1997H2.43363C2.2 64.1997 2.0092 64.3909 2.0092 64.625V67.5708C2.0092 67.8049 1.81841 67.9961 1.58478 67.9961H0.424425C0.190796 67.9961 0 67.8049 0 67.5708ZM22.5373 62.1903C22.3037 62.1903 22.1129 62.3815 22.1129 62.6156V67.5747C22.1129 67.8088 22.3037 68 22.5373 68H23.7016C23.9352 68 24.126 67.8088 24.126 67.5747V62.6156C24.126 62.3815 23.9352 62.1903 23.7016 62.1903H22.5373ZM23.1214 58.4875C22.5062 58.4875 22.0078 58.9869 22.0078 59.6034C22.0078 60.2199 22.5062 60.7193 23.1214 60.7193C23.7366 60.7193 24.235 60.2199 24.235 59.6034C24.235 58.9869 23.7366 58.4875 23.1214 58.4875ZM75.3023 62.1903C75.0687 62.1903 74.8779 62.3815 74.8779 62.6156V67.5747C74.8779 67.8088 75.0687 68 75.3023 68H76.4666C76.7002 68 76.891 67.8088 76.891 67.5747V62.6156C76.891 62.3815 76.7002 62.1903 76.4666 62.1903H75.3023ZM75.8864 60.7232C76.5016 60.7232 77 60.2238 77 59.6073C77 58.9908 76.5016 58.4914 75.8864 58.4914C75.2712 58.4914 74.7727 58.9908 74.7727 59.6073C74.7727 60.2199 75.2712 60.7232 75.8864 60.7232ZM31.9175 67.9961H33.0818C33.3154 67.9961 33.5062 67.8049 33.5062 67.5708V64.625C33.5062 64.3909 33.697 64.1997 33.9306 64.1997H43.451C44.9968 64.1997 46.2467 62.9433 46.2467 61.3982C46.2467 59.8531 44.9929 58.5967 43.451 58.5967H31.9175C31.6839 58.5967 31.4931 58.7879 31.4931 59.022V60.1887C31.4931 60.4228 31.6839 60.614 31.9175 60.614H43.4471C43.8832 60.614 44.2336 60.9651 44.2336 61.4021C44.2336 61.8391 43.8832 62.1903 43.4471 62.1903H32.5989C31.9876 62.1903 31.4931 62.6858 31.4931 63.2984V67.5708C31.4931 67.8049 31.6839 67.9961 31.9175 67.9961ZM54.7742 61.765V59.022C54.7742 58.7879 54.5834 58.5967 54.3497 58.5967H53.1855C52.9519 58.5967 52.7611 58.7879 52.7611 59.022V67.5708C52.7611 67.8049 52.9519 67.9961 53.1855 67.9961H54.3497C54.5834 67.9961 54.7742 67.8049 54.7742 67.5708V64.625C54.7742 64.3909 54.965 64.1997 55.1986 64.1997H65.085C65.3186 64.1997 65.5094 64.3909 65.5094 64.625V67.5708C65.5094 67.8049 65.7002 67.9961 65.9338 67.9961H67.0981C67.3317 67.9961 67.5225 67.8049 67.5225 67.5708V63.2945C67.5225 62.6819 67.028 62.1864 66.4166 62.1864H55.2064C54.965 62.1864 54.7742 61.9991 54.7742 61.765ZM21.6924 41.386L27.1359 35.9353C27.4513 35.6192 27.4708 35.1081 27.171 34.7765C24.749 32.0803 23.2733 28.5141 23.2733 24.6006C23.2733 20.6872 24.749 17.121 27.171 14.4248C27.4708 14.0932 27.4513 13.5821 27.1359 13.266L21.6924 7.81524C21.3575 7.47969 20.8046 7.48359 20.4814 7.83085C16.3929 12.2242 13.8931 18.1198 13.8931 24.6006C13.8931 31.0815 16.3929 36.977 20.4814 41.3704C20.8085 41.7177 21.3575 41.7255 21.6924 41.386ZM34.4641 48.8813C35.7607 49.092 37.0885 49.2052 38.4435 49.2052C39.7986 49.2052 41.1303 49.0959 42.423 48.8813C42.8319 48.815 43.1317 48.46 43.1317 48.0464V1.15882C43.1317 0.745238 42.8319 0.390177 42.423 0.323847C41.1303 0.109249 39.8025 0 38.4435 0C37.0885 0 35.7568 0.109249 34.4641 0.323847C34.0552 0.390177 33.7554 0.745238 33.7554 1.15882V48.0464C33.7554 48.46 34.0552 48.815 34.4641 48.8813ZM49.755 35.9353L55.1947 41.386C55.5296 41.7216 56.0825 41.7177 56.4057 41.3704C60.4942 36.977 62.994 31.0815 62.994 24.6006C62.994 18.1198 60.4942 12.2242 56.4057 7.83085C56.0825 7.48359 55.5296 7.47579 55.1947 7.81524L49.755 13.266C49.4396 13.5821 49.4202 14.0932 49.72 14.4248C52.1419 17.121 53.6177 20.6872 53.6177 24.6006C53.6177 28.5141 52.1419 32.0803 49.72 34.7765C49.4241 35.1081 49.4396 35.6192 49.755 35.9353Z" fill="currentColor"></path>
            </svg>