<?xml version="1.0" encoding="utf-8"?>
<!-- Generator: Adobe Illustrator 21.0.0, SVG Export Plug-In . SVG Version: 6.00 Build 0)  -->
<svg version="1.1" id="Calque_1" xmlns="http://www.w3.org/2000/svg" xmlns:xlink="http://www.w3.org/1999/xlink" x="0px" y="0px"
	 viewBox="0 0 260 80" style="enable-background:new 0 0 260 80;" xml:space="preserve">
<style type="text/css">
	.st0{fill:#004F89;}
	.st1{fill:#0069A3;}
	.st2{fill:#0F8EBB;}
	.st3{fill:#95CEEA;}
	.st4{fill:#66B8D9;}
	.st5{fill:#EF7D00;}
	.st6{fill:#EC6608;}
	.st7{fill:#FBBC43;}
	.st8{fill:#E74011;}
	.st9{fill:#F7A600;}
	.st10{fill:#69A82F;}
	.st11{fill:#137F34;}
	.st12{fill:#006E33;}
	.st13{fill:#95C11F;}
	.st14{fill:#C6D76B;}
	.st15{fill:#CA5097;}
	.st16{fill:#B9348B;}
	.st17{fill:#951B81;}
	.st18{fill:#7E1E7D;}
	.st19{fill:#681F79;}
	.st20{fill:#C6C6C6;}
	.st21{fill:#B3B2B2;}
	.st22{fill:#9D9D9C;}
	.st23{fill:#706F6F;}
	.st24{fill:#575756;}
	.st25{fill:#E40521;}
	.st26{fill:#E94F35;}
	.st27{fill:#F08262;}
	.st28{fill:#C51321;}
	.st29{fill:#A8181F;}
	.st30{fill:#004F88;}
</style>
<polygon class="st0" points="45.8,40.3 39.1,37.7 37.7,46 "/>
<polygon class="st1" points="45.8,40.3 45.8,32.7 39.1,37.7 "/>
<polygon class="st2" points="45.8,32.7 37.5,31.4 39.1,37.7 "/>
<polygon class="st3" points="32.5,38.9 37.7,46 39.1,37.7 "/>
<polygon class="st4" points="37.5,31.4 32.4,38.9 32.5,38.9 39.1,37.7 "/>
<polygon class="st5" points="53.3,31.4 45.8,32.8 52.1,37.7 "/>
<polygon class="st6" points="58.6,38.7 53.3,31.4 52.1,37.7 "/>
<polygon class="st7" points="45.8,40.3 45.8,40.3 53.6,46 52.1,37.7 "/>
<polygon class="st8" points="52.1,37.7 53.6,46 58.6,38.7 "/>
<polygon class="st9" points="45.8,32.7 45.8,40.3 52.1,37.7 "/>
<polygon class="st10" points="45.8,40.3 37.7,46 45.7,48.1 "/>
<polygon class="st11" points="53.6,46 53.6,46 45.8,40.3 45.7,48.1 "/>
<polygon class="st12" points="45.7,48.1 50.5,54.7 53.6,46 "/>
<polygon class="st13" points="37.7,46 40.7,54.7 45.7,48.1 "/>
<polygon class="st14" points="40.7,54.7 40.7,54.7 50.5,54.7 45.7,48.1 "/>
<polygon class="st15" points="45.5,31.1 45.8,32.8 37.5,31.5 "/>
<polygon class="st16" points="40.5,30 37.5,31.5 45.5,31.1 "/>
<polygon class="st17" points="40.5,30 50.5,30 45.5,31.1 "/>
<polygon class="st18" points="53.3,31.4 45.5,31.1 50.5,30 "/>
<polygon class="st19" points="45.8,32.7 45.5,31.1 53.3,31.4 "/>
<polygon class="st20" points="36.1,47.6 37.8,53.3 40.7,54.7 "/>
<polygon class="st21" points="32.3,44.3 36.1,47.6 37.8,53.3 "/>
<polygon class="st22" points="32.4,38.9 36.1,47.6 32.3,44.3 "/>
<polygon class="st23" points="37.7,46 36.1,47.6 32.5,38.9 "/>
<polygon class="st24" points="40.7,54.7 37.7,46 36.1,47.6 "/>
<polygon class="st25" points="55.4,47.6 53.6,46 58.6,38.7 "/>
<polygon class="st26" points="50.5,54.7 53.6,46 55.4,47.6 "/>
<polygon class="st27" points="53.5,53.3 50.5,54.7 55.4,47.6 "/>
<polygon class="st28" points="58.9,44.3 55.4,47.6 58.6,38.7 "/>
<polygon class="st29" points="53.5,53.3 55.4,47.6 58.9,44.3 "/>
<polygon class="st30" points="158.1,51.2 149,37 139.8,51.2 136.1,51.2 147.8,33.6 150.2,33.6 161.9,51.2 "/>
<path class="st30" d="M150.7,45.1c0,1-0.8,1.8-1.8,1.8c-1,0-1.8-0.8-1.8-1.8c0-1,0.8-1.8,1.8-1.8C149.9,43.3,150.7,44.1,150.7,45.1"
	/>
<polygon class="st30" points="89.3,51.2 70.5,37.5 70.5,51.2 67.6,51.2 67.6,33.6 70.5,33.6 88.1,46.7 88.1,33.6 91,33.6 91,51.2 
	"/>
<path class="st30" d="M99.6,51.2c-1,0-1.9-0.1-2.6-0.3c-0.7-0.2-1.3-0.5-1.7-0.9c-0.4-0.4-0.8-0.8-1-1.3c-0.2-0.5-0.3-1.1-0.3-1.7
	v-9.1c0-0.6,0.1-1.2,0.3-1.7c0.2-0.5,0.5-1,1-1.3c0.4-0.4,1-0.7,1.7-0.9c0.7-0.2,1.6-0.3,2.6-0.3h11.6c1,0,1.9,0.1,2.6,0.3
	c0.7,0.2,1.3,0.5,1.7,0.9c0.4,0.4,0.8,0.8,1,1.3c0.2,0.5,0.3,1.1,0.3,1.7l0,9.1c0,0.6-0.1,1.2-0.3,1.7c-0.2,0.5-0.5,1-1,1.3
	c-0.4,0.4-1,0.7-1.7,0.9c-0.7,0.2-1.6,0.3-2.6,0.3H99.6z M113.5,37.8c0-1.1-0.7-1.6-2.2-1.6H99.6c-1.5,0-2.2,0.5-2.2,1.6V47
	c0,1.1,0.7,1.6,2.2,1.6h11.6c1.5,0,2.2-0.5,2.2-1.6L113.5,37.8z"/>
<polygon class="st30" points="129.4,51.2 117.7,33.6 121.4,33.6 130.7,47.8 139.8,33.6 143.5,33.6 131.8,51.2 "/>
<path class="st30" d="M181,51.2l-4.1-7.9h-9.3l0,7.9h-3.3l0-17.6h15c1,0,1.9,0.1,2.6,0.3c0.7,0.2,1.3,0.5,1.7,0.9
	c0.4,0.4,0.8,0.8,1,1.3c0.2,0.5,0.3,1.1,0.3,1.7v1.3c0,1.1-0.3,2.1-1,2.8c-0.7,0.8-1.8,1.2-3.4,1.4l4.2,7.9H181z M181.4,37.8
	c0-1.1-0.7-1.6-2.2-1.6h-11.6v4.6h11.6c1.5,0,2.2-0.5,2.2-1.6V37.8z"/>
<polygon class="st30" points="188.2,51.2 188.2,33.6 206.3,33.6 206.3,36.2 191.5,36.2 191.5,40.6 205.6,40.6 205.6,43.2 
	191.5,43.2 191.5,48.6 206.3,48.6 206.3,51.2 "/>
<path class="st30" d="M210.1,51.2v-2.6h15.3c1.5,0,2.2-0.5,2.2-1.6v-2.2c0-1.1-0.7-1.6-2.2-1.6h-10.4c-1,0-1.9-0.1-2.6-0.3
	c-0.7-0.2-1.3-0.5-1.7-0.9c-0.4-0.4-0.8-0.8-1-1.3c-0.2-0.5-0.3-1.1-0.3-1.7l0-1c0-0.6,0.1-1.2,0.3-1.7c0.2-0.5,0.5-1,1-1.3
	c0.4-0.4,1-0.7,1.7-0.9c0.7-0.2,1.6-0.3,2.6-0.3H230v2.6h-14.9c-1.5,0-2.2,0.5-2.2,1.6v1.1c0,1.1,0.7,1.6,2.2,1.6h10.4
	c1,0,1.9,0.1,2.6,0.3c0.7,0.2,1.3,0.5,1.7,0.9c0.4,0.4,0.8,0.8,1,1.3c0.2,0.5,0.3,1.1,0.3,1.7V47c0,0.6-0.1,1.2-0.3,1.7
	c-0.2,0.5-0.5,1-1,1.3s-1,0.7-1.7,0.9c-0.7,0.2-1.6,0.3-2.6,0.3H210.1z"/>
</svg>
