<svg viewBox="0 0 376.66 150.39" xmlns="http://www.w3.org/2000/svg"><g fill="#010101"><path d="m148.53 0-64.84 108.53h20.31s40.31-98.05 44.53-108.53z"/><path d="m147.92 108.53s-.78-79.82-.78-81.83-5.21 35.78-11.23 81.83h12z"/><path d="m172.33 108.53h-12.77s-9.3-68.57-9.13-68.65 19.52 61.75 21.9 68.65z"/><path d="m184.35 108.53-23.57-47.2 43.85 47.2z"/><path d="m12.22 74.07c1.92 8.4 4.57 13 10 17.21 5.6 4.48 13.25 6.86 22.38 6.86 13.25 0 23.7-8.39 23.7-18.74 0-9.8-6.92-14.84-27.09-19.32-16.49-3.63-19.58-4.89-28.56-11.89-5.6-5.6-8.1-11.06-8.1-17.78 0-16.09 15.75-27 38.87-27 27.82 0 34.74 15.81 37.4 21.41l-10.88 9.65c-2.07-6.02-6.33-18.47-27.68-18.47-14 0-22.68 5.46-22.68 14.41 0 9.52 15.46 13 25.62 15.4 16.19 3.5 38.72 9.38 38.72 32.32 0 19.45-16.64 32.33-42 32.33-14.87 0-26.94-4.62-34.75-13.3-3.17-3.64-4.81-6.43-7.17-13.43z"/><path d="m290.58 90c-4.13 5.18-5.89 7.14-9.87 9.93a55.29 55.29 0 0 1 -32.09 10.35c-31.22 0-51.53-19.87-51.53-50.37 0-34.84 20-56.53 52.71-56.53a46 46 0 0 1 36.66 18.05l-8.54 11.19c-6.78-10.25-16.92-16.69-28.87-16.69-22.82 0-36.51 16.09-36.51 43.1 0 24.49 13.54 38.9 36.36 38.9 15.17 0 22.53-7.28 27.09-12.31v-16.38h-41.37v-12.45h56v33.21z"/><path d="m310.11 5h66.11l-4 11.9h-47.7v32.86h43.73v12h-43.71v35.96h47.85l4.27 12h-66.55z"/><path d="m147.01 11.24-31.64 97.54h11.64z"/><path d="m12.57 126h3.1l11.08 23.87h-3.52l-2.71-5.76h-12.8l-2.72 5.75h-3.54zm1.55 4.27-5.07 10.88h10.1z"/><path d="m31.5 133.5h3v10.3c0 2.75 1.16 4.14 3.48 4.14a4.46 4.46 0 0 0 4.54-4.37v-10.07h3v16.36h-3v-2.86c-.7 1-2.36 3.41-5.45 3.41a5.11 5.11 0 0 1 -5.57-5.41z"/><path d="m58.16 127.24v6.26h3.69v2.32h-3.69v9.9c0 1.72.35 2.25 1.55 2.25a9 9 0 0 0 1.93-.3v2.33a13.58 13.58 0 0 1 -2.67.36c-2.71 0-3.76-.83-3.76-3v-11.54h-3.14v-2.32h3.13v-4.27z"/><path d="m84.33 141.51c0 5.4-3.24 8.84-8.2 8.84-4.71 0-8-3.58-8-8.74 0-5 3.31-8.54 8-8.54s8.2 3.48 8.2 8.44zm-13.09.27c0 3.94 1.86 6.19 5.17 6.19 3 0 4.82-2.35 4.82-6.26 0-4.47-2.22-6.29-5.1-6.29s-4.88 2.22-4.88 6.36z"/><path d="m114.73 149.86h-2.92v-10.56c0-2.42-1.3-3.87-3.41-3.87-2.6 0-3.94 1.62-3.94 4.77v9.67h-3v-9.87c0-3.15-1.06-4.57-3.41-4.57s-3.94 1.79-3.94 4.3v10.16h-2.88v-16.39h2.92v3c1.41-2.38 3-3.44 5.1-3.44 2.5 0 3.9 1.26 4.85 3.58 1-1.42 2.43-3.58 5.42-3.58a5.12 5.12 0 0 1 5.21 5.33v11.46z"/><path d="m137.77 141.51c0 5.4-3.24 8.84-8.2 8.84-4.71 0-8-3.58-8-8.74 0-5 3.31-8.54 8-8.54s8.2 3.48 8.2 8.44zm-13.09.27c0 3.94 1.86 6.19 5.17 6.19 3 0 4.82-2.35 4.82-6.26 0-4.47-2.22-6.29-5.1-6.29s-4.89 2.22-4.89 6.36z"/><path d="m148.64 127.24v6.26h3.69v2.32h-3.69v9.9c0 1.72.35 2.25 1.55 2.25a9 9 0 0 0 1.93-.3v2.33a13.58 13.58 0 0 1 -2.67.36c-2.71 0-3.76-.83-3.76-3v-11.54h-3.13v-2.32h3.13v-4.27z"/><path d="m160.35 126.78h3v3.58h-3zm0 6.72h3v16.36h-3z"/><path d="m171 133.5h2.85l4.27 12.5 4.19-12.48h2.81l-5.42 16.36h-3.13z"/><path d="m205.41 145.65a7.46 7.46 0 0 1 -1.83 2.65 7.86 7.86 0 0 1 -5.45 2.05c-4.61 0-7.7-3.51-7.7-8.64s3.2-8.64 7.84-8.64c4.26 0 7.39 3.31 7.39 7.78 0 .5 0 1.06-.07 1.75h-12.1c.28 5.53 4.26 5.53 4.89 5.53a4.78 4.78 0 0 0 4.68-3.58zm-2.81-5.26c-.28-5.07-4-5.07-4.47-5.07-2.74 0-4.4 1.82-4.57 5.07h9z"/><path d="m224.23 126h3.48v23.87h-3.48z"/><path d="m251.32 149.86h-3v-10.53c0-2.45-1.34-3.87-3.59-3.87a4.08 4.08 0 0 0 -4.4 4.07v10.33h-3v-16.36h3v2.91c1.62-2.22 3.52-3.34 5.66-3.34a5.08 5.08 0 0 1 5.28 5.43v11.36z"/><path d="m263.31 127.24v6.26h3.69v2.32h-3.69v9.9c0 1.72.35 2.25 1.55 2.25a9 9 0 0 0 1.93-.3v2.33a13.58 13.58 0 0 1 -2.67.36c-2.71 0-3.76-.83-3.76-3v-11.54h-3.13v-2.32h3.13v-4.27z"/><path d="m288.5 145.65a7.46 7.46 0 0 1 -1.83 2.65 7.86 7.86 0 0 1 -5.45 2.05c-4.61 0-7.7-3.51-7.7-8.64s3.2-8.64 7.84-8.64c4.26 0 7.39 3.31 7.39 7.78 0 .5 0 1.06-.07 1.75h-12.1c.28 5.53 4.26 5.53 4.89 5.53a4.78 4.78 0 0 0 4.68-3.58zm-2.81-5.26c-.28-5.07-4-5.07-4.47-5.07-2.74 0-4.4 1.82-4.57 5.07h9z"/><path d="m298.95 136.68c.88-1.52 2.08-3.58 4.61-3.58.35 0 .77 0 1.23.07v2.88a10.49 10.49 0 0 0 -1.51-.13 4.12 4.12 0 0 0 -4.36 4.24v9.7h-2.92v-16.36h3v3.18z"/><path d="m312.28 126.78h3v3.58h-3zm0 6.72h3v16.36h-3z"/><path d="m339 141.51c0 5.4-3.24 8.84-8.2 8.84-4.71 0-8-3.58-8-8.74 0-5 3.31-8.54 8-8.54s8.2 3.48 8.2 8.44zm-13.09.27c0 3.94 1.86 6.19 5.17 6.19 3 0 4.82-2.35 4.82-6.26 0-4.47-2.22-6.29-5.1-6.29s-4.91 2.22-4.91 6.36z"/><path d="m348.83 136.68c.88-1.52 2.08-3.58 4.61-3.58.35 0 .77 0 1.23.07v2.88a10.49 10.49 0 0 0 -1.51-.13 4.12 4.12 0 0 0 -4.36 4.24v9.7h-2.92v-16.36h3v3.18z"/><path d="m362.94 144.43c.28 2.48 1.93 3.71 5 3.71 2.39 0 4.19-1.06 4.19-2.45s-1.3-2.22-4.54-2.75-6.47-1.66-6.47-5.1c0-2.85 2.74-4.8 6.75-4.8 5 0 6.54 3.31 6.68 4.4l-2.08 1.32c-.6-2.35-2.11-3.44-4.68-3.44-2.22 0-4 1-4 2.25s1.34 2.09 4.5 2.58c.77.13 6.65.7 6.72 5.1 0 .13 0 5.13-7.46 5.13a8.14 8.14 0 0 1 -5-1.46 5.16 5.16 0 0 1 -2-3.18z"/></g></svg>