<svg width="100%" height="100%" viewBox="0 0 188 37" version="1.1" xmlns="http://www.w3.org/2000/svg" xmlns:xlink="http://www.w3.org/1999/xlink" xml:space="preserve" xmlns:serif="http://www.serif.com/" style="fill-rule:evenodd;clip-rule:evenodd;stroke-linejoin:round;stroke-miterlimit:1.41421;"><path d="M40.433,12.351l-1.537,0c-0.12,0.002 -0.219,0.096 -0.227,0.215l0,7.888c0,0 -8.358,-8.186 -8.426,-8.256c-0.041,-0.039 -0.096,-0.06 -0.152,-0.06c-0.123,0 -0.223,0.1 -0.223,0.223c0,0 0,0.001 0,0.002l0,12.061c0.001,0.122 0.102,0.221 0.224,0.222l1.531,0c0.122,0 0.223,-0.1 0.224,-0.222l0,-7.86c0,0 8.307,8.106 8.418,8.216c0.065,0.071 0.17,0.093 0.258,0.053c0.078,-0.038 0.129,-0.117 0.13,-0.203l0,-12.079c0,-0.108 -0.111,-0.2 -0.22,-0.2Z" style="fill-rule:nonzero;"></path><path d="M117.666,12.155c-0.079,-0.03 -0.169,-0.016 -0.234,0.037c-0.075,0.064 -5.795,4.799 -5.795,4.799c0,0 -5.731,-4.726 -5.794,-4.793c-0.041,-0.037 -0.094,-0.057 -0.148,-0.057c-0.122,0 -0.223,0.1 -0.223,0.222c0,0.002 0,0.003 0,0.004l0,12.064c0,0 0,0.001 0,0.001c0,0.121 0.1,0.22 0.221,0.22c0,0 0.001,0 0.002,0l1.528,0c0,0 0,0 0.001,0c0.121,0 0.221,-0.099 0.221,-0.22l0,-8.332l4.045,3.344c0.084,0.073 0.21,0.073 0.295,0l4.04,-3.342l0,8.33c0.001,0.12 0.101,0.219 0.221,0.22l1.538,0c0.121,0 0.221,-0.099 0.222,-0.22l0,-12.076c-0.001,-0.089 -0.056,-0.169 -0.14,-0.201Z" style="fill-rule:nonzero;"></path><path d="M7.553,17.514l-3.973,0c-0.005,0 -0.01,0 -0.015,0c-0.868,0 -1.582,-0.712 -1.582,-1.577c0,-0.01 0.001,-0.019 0.001,-0.029c0,-0.878 0.747,-1.578 1.6,-1.578l5.708,0.003c0.118,-0.006 0.211,-0.104 0.212,-0.222l0,-1.536c0,-0.123 -0.101,-0.223 -0.224,-0.223c-0.002,0 -0.004,0 -0.006,0l-5.692,0c-1.912,0 -3.582,1.539 -3.582,3.57c0,2.086 1.761,3.564 3.582,3.564l3.989,0.004c0.995,0 1.59,0.857 1.59,1.586c0,0.836 -0.665,1.597 -1.59,1.597l-6.429,-0.008c-0.117,0.002 -0.213,0.095 -0.217,0.212l0,1.533c-0.006,0.12 0.085,0.225 0.206,0.236c0.106,0 1.717,0.004 2.19,0.004c0.483,0 4.232,-0.007 4.232,-0.007c2.112,0 3.589,-1.733 3.589,-3.562c0,-2.182 -1.815,-3.567 -3.589,-3.567Z" style="fill-rule:nonzero;"></path><path d="M184.412,17.514l-3.97,0c-0.006,0 -0.011,0 -0.016,0c-0.867,0 -1.581,-0.712 -1.581,-1.578c0,-0.009 0,-0.019 0,-0.028c0,-0.878 0.747,-1.578 1.6,-1.578l5.709,0.003c0.117,-0.006 0.211,-0.104 0.212,-0.222l0,-1.536c-0.001,-0.123 -0.102,-0.223 -0.225,-0.223c-0.002,0 -0.003,0 -0.005,0l-5.692,0c-1.913,0 -3.582,1.539 -3.582,3.57c0,2.086 1.761,3.564 3.582,3.564l3.988,0.004c0.996,0 1.591,0.857 1.591,1.586c0,0.836 -0.666,1.597 -1.591,1.597l-6.429,-0.004c-0.117,0 -0.214,0.092 -0.221,0.208l0,1.533c-0.005,0.121 0.086,0.226 0.207,0.237c0.106,0 1.717,0.003 2.19,0.003c0.483,0 4.232,-0.006 4.232,-0.006c2.112,0 3.589,-1.734 3.589,-3.562c0.001,-2.183 -1.814,-3.568 -3.588,-3.568Z" style="fill-rule:nonzero;"></path><path d="M145.556,12.349l-10.347,0c0,0 -0.001,0 -0.001,0c-0.121,0 -0.22,0.099 -0.22,0.219c0,0.001 0,0.002 0,0.004l0,1.529c0,0.002 0,0.004 0,0.006c0,0.124 0.103,0.226 0.227,0.226c0.003,0 0.007,0 0.01,0l4.169,0c0.003,0.71 0.009,2.017 0,3.176c-0.006,0.76 0,6.851 0,6.925c0,0 0,0.001 0,0.002c0,0.12 0.099,0.218 0.22,0.218c0.001,0 0.002,0 0.003,0l1.542,0c0.002,0 0.004,0 0.006,0c0.119,0 0.218,-0.098 0.218,-0.217c0,-0.001 0,-0.002 0,-0.003l0,-10.097l4.182,0c0.117,-0.006 0.211,-0.103 0.212,-0.221l0,-1.543c0,-0.002 0,-0.004 0,-0.006c0,-0.119 -0.099,-0.218 -0.219,-0.218c0,0 -0.001,0 -0.002,0Z" style="fill-rule:nonzero;"></path><path d="M174.247,24.324c-0.116,-0.227 -2.656,-4.949 -2.656,-4.949c1.302,-0.324 2.681,-1.593 2.681,-3.456c0,-1.778 -1.436,-3.566 -3.575,-3.566c-0.926,0 -4.523,-0.002 -5.472,0l-1.692,0c-0.12,0.005 -0.217,0.104 -0.218,0.223l0,11.855c0,0.121 0.1,0.221 0.222,0.221c0,0 0.001,0 0.001,0l1.542,0c0.121,0 0.221,-0.1 0.221,-0.221c0,0 0,0 0,0l0,-4.931l4.114,-0.007c0,0 2.401,4.449 2.688,5.005c0.033,0.089 0.119,0.149 0.215,0.151l1.734,0c0.074,-0.002 0.143,-0.039 0.185,-0.099c0.044,-0.068 0.048,-0.155 0.01,-0.226Zm-8.956,-6.806l0.004,-3.187l5.402,-0.004c0.93,0 1.599,0.786 1.599,1.618c-0.012,0.868 -0.729,1.575 -1.599,1.577c-0.811,0 -5.406,-0.004 -5.406,-0.004Z" style="fill-rule:nonzero;"></path><path d="M20.172,24.848c-3.494,0 -6.37,-2.867 -6.37,-6.352c0,-3.485 2.876,-6.352 6.37,-6.352c3.495,0 6.37,2.867 6.37,6.352c-0.004,3.483 -2.877,6.349 -6.37,6.352Zm0,-10.748c-2.418,0 -4.408,1.984 -4.408,4.396c0,2.412 1.99,4.396 4.408,4.396c2.419,0 4.409,-1.984 4.409,-4.396c-0.003,-2.41 -1.992,-4.393 -4.409,-4.395l0,-0.001Z" style="fill-rule:nonzero;"></path><path d="M50.382,24.848c-3.494,0 -6.37,-2.867 -6.37,-6.352c0,-3.485 2.876,-6.352 6.37,-6.352c3.495,0 6.37,2.867 6.37,6.352c-0.004,3.483 -2.877,6.348 -6.37,6.352Zm0,-10.748c-2.418,0 -4.408,1.984 -4.408,4.396c0,2.412 1.99,4.396 4.408,4.396c2.419,0 4.409,-1.984 4.409,-4.396c-0.004,-2.41 -1.992,-4.392 -4.409,-4.395l0,-0.001Z" style="fill-rule:nonzero;"></path><path d="M127.389,24.848c-3.494,0 -6.37,-2.867 -6.37,-6.352c0,-3.485 2.876,-6.352 6.37,-6.352c3.494,0 6.37,2.867 6.37,6.352c-0.004,3.483 -2.877,6.349 -6.37,6.352Zm0,-10.748c-2.418,0 -4.409,1.984 -4.409,4.396c0,2.412 1.991,4.396 4.409,4.396c2.418,0 4.408,-1.984 4.408,-4.396c-0.003,-2.41 -1.991,-4.393 -4.408,-4.395l0,-0.001Z" style="fill-rule:nonzero;"></path><path d="M153.533,24.848c-3.494,0 -6.37,-2.867 -6.37,-6.352c0,-3.485 2.876,-6.352 6.37,-6.352c3.494,0 6.37,2.867 6.37,6.352c-0.004,3.483 -2.877,6.348 -6.37,6.352Zm0,-10.748c-2.418,0 -4.408,1.984 -4.408,4.396c0,2.412 1.99,4.396 4.408,4.396c2.418,0 4.409,-1.984 4.409,-4.396c-0.004,-2.41 -1.992,-4.392 -4.409,-4.395l0,-0.001Z" style="fill-rule:nonzero;"></path><path d="M99.43,18.498c0.009,10.247 -8.371,18.612 -18.758,18.501c-10.182,-0.106 -18.465,-8.427 -18.342,-18.734c0.12,-10.138 8.46,-18.403 18.813,-18.263c10.119,0.137 18.291,8.36 18.287,18.496Zm-1.98,0.01c0,-9.07 -7.316,-16.429 -16.381,-16.53c-9.217,-0.105 -16.661,7.273 -16.759,16.332c-0.101,9.202 7.315,16.673 16.45,16.705c9.253,0.037 16.69,-7.349 16.69,-16.507Z"></path><path d="M80.813,23.458c-2.908,-0.1 -4.943,-2.379 -4.895,-5.022c0.053,-2.883 2.356,-4.929 5.028,-4.882c2.877,0.053 4.942,2.336 4.896,5.015c-0.051,2.876 -2.352,4.889 -5.029,4.889Z"></path></svg>