<?xml version="1.0" encoding="utf-8"?>
<!-- Generator: Adobe Illustrator 25.0.0, SVG Export Plug-In . SVG Version: 6.00 Build 0)  -->
<svg version="1.1" id="图层_1" xmlns="http://www.w3.org/2000/svg" xmlns:xlink="http://www.w3.org/1999/xlink" x="0px" y="0px"
	 viewBox="0 0 32.5 32.5" style="enable-background:new 0 0 32.5 32.5;" xml:space="preserve">
<style type="text/css">
	.st0{fill:#FFFFFF;}
</style>
<g>
	<path class="st0" d="M28.4,2.5c0-0.4,0-0.7-0.2-1l0,0c0,0,0,0,0,0c-0.2-0.4-0.6-0.7-1.5-0.8c-4.2-0.4-6.1-0.5-10.5-0.5c0,0,0,0,0,0
		h0c-4.4,0-6.2,0.1-10.5,0.5C4.8,0.8,4.4,1.1,4.2,1.5c0,0,0,0,0,0l0,0c-0.1,0.3-0.2,0.6-0.2,1C3.8,7.3,4,20.2,4.6,27.5
		c0.1,0.8,0.1,1.7,0.2,2.5c0.2,1.1,0.7,1.4,1.5,1.6c1.6,0.3,4.6,0.6,9.8,0.6s8.3-0.3,9.8-0.6c0.9-0.2,1.4-0.5,1.5-1.6
		c0.1-0.7,0.2-1.6,0.2-2.5C28.5,20.2,28.6,7.3,28.4,2.5z M5.2,3c0-0.6-0.1-1,0.4-1.3L12.5,3c0.2-0.1,3.7-0.1,3.8-0.1c0,0,0,0,0,0
		c0.1,0,3.5,0,3.8,0.1l6.8-1.3c0.5,0.3,0.4,0.7,0.4,1.3c0.1,1.5,0.1,3.8,0.1,6.4l0,0l-5.5,0.4c-1.4,0.1-1.5,0.5-1.5,1.1
		c0,0-0.1,4.3-0.1,5.8c-0.1,2.1-0.2,5.3-0.2,5.4c0,0.5-0.4,0.9-0.9,0.9c0,0-1.7,0.1-2.9,0.1v0c0,0,0,0,0,0c0,0,0,0,0,0v0
		c-1.2,0-2.9-0.1-2.9-0.1c-0.5,0-0.8-0.4-0.9-0.9c0-0.1-0.2-3.3-0.2-5.4c0-1.5-0.1-5.8-0.1-5.8c0-0.6-0.2-1-1.5-1.1L5.1,9.5
		C5.1,6.8,5.1,4.5,5.2,3z M16.2,24.2L16.2,24.2L16.2,24.2l2.7,0c2.1,0,1.9-0.2,2.2-2c0.1-0.5,1.1-11,1.1-11c0-0.2,0.2-0.3,0.4-0.4
		l4.6-0.6c0.1,0,0.2,0.1,0.2,0.1c0,0-0.4,17.4-0.9,19.5c-0.1,0.5-0.2,0.6-0.6,0.7c0,0-2.3,0.6-9.7,0.6c-7.3,0-9.7-0.6-9.7-0.6
		c-0.4-0.1-0.5-0.2-0.6-0.7c-0.5-2.1-0.9-19.5-0.9-19.5c0-0.1,0.1-0.2,0.2-0.1l4.6,0.6c0.2,0,0.3,0.1,0.4,0.4c0,0,1,10.5,1.1,11
		c0.3,1.9,0.1,2.1,2.2,2L16.2,24.2L16.2,24.2L16.2,24.2z"/>
	<g>
		<path class="st0" d="M14.2,26.1C14.2,26.1,14.2,26.1,14.2,26.1l-0.8,0c0,0,0,0,0,0l-1.5,2.3c0,0,0,0,0,0h0.7c0,0,0,0,0,0l0.4-0.6
			c0,0,0.1,0,0.1,0h1.4c0,0,0.1,0,0.1,0l0.4,0.6c0,0,0,0,0,0h0.7c0,0,0,0,0,0L14.2,26.1z M14.2,27.4h-0.8c0,0-0.1,0,0-0.1l0.4-0.6
			c0,0,0.1,0,0.1,0L14.2,27.4C14.2,27.4,14.2,27.4,14.2,27.4z"/>
		<path class="st0" d="M11.8,26.1H8.1c0,0,0,0,0,0l0.2,0.3c0,0,0.1,0,0.1,0h1.2c0,0,0.1,0,0.1,0.1v1.9c0,0,0,0,0,0h0.6c0,0,0,0,0,0
			v-1.9c0,0,0-0.1,0.1-0.1h1.2c0,0,0.1,0,0.1,0L11.8,26.1C11.8,26.1,11.8,26.1,11.8,26.1z"/>
		<path class="st0" d="M20.1,26.1l-0.6,0c0,0,0,0,0,0v1.7c0,0,0,0,0,0l-2.1-1.7c0,0,0,0-0.1,0l-0.6,0c0,0,0,0,0,0v2.3c0,0,0,0,0,0
			l0.6,0c0,0,0,0,0,0v-1.7c0,0,0,0,0,0l2.1,1.7c0,0,0,0,0.1,0l0.6,0c0,0,0,0,0,0L20.1,26.1C20.1,26.1,20.1,26.1,20.1,26.1z"/>
		<path class="st0" d="M24.6,28.4L23,27.1c0,0,0,0,0,0l1.6-1c0,0,0,0,0,0h-0.8c0,0-0.1,0-0.1,0L22,27.2c0,0,0,0,0,0v-1c0,0,0,0,0,0
			h-0.6c0,0,0,0,0,0v2.3c0,0,0,0,0,0h0.6c0,0,0,0,0,0v-0.6c0,0,0,0,0,0l0.5-0.3c0,0,0,0,0.1,0l1.2,1c0,0,0.1,0,0.1,0L24.6,28.4
			C24.6,28.5,24.6,28.4,24.6,28.4z"/>
	</g>
</g>
</svg>
