<?xml version="1.0" encoding="utf-8"?>
<!-- Generator: Adobe Illustrator 22.1.0, SVG Export Plug-In . SVG Version: 6.00 Build 0)  -->
<svg version="1.1" id="Layer_1" xmlns="http://www.w3.org/2000/svg" xmlns:xlink="http://www.w3.org/1999/xlink" x="0px" y="0px"
	 viewBox="0 0 924.3 184.3" style="enable-background:new 0 0 924.3 184.3;" xml:space="preserve">
<style type="text/css">
	.st0{fill:#FF6D10;}
	.st1{fill:#373737;}
</style>
<g>
	<g>
		<path class="st0" d="M99.5,11.3c6.1,0,8.7,3.1,11.6,8.2L137.5,67c1.6,1.9,4.3,6.8,10.4,6.8c6.1,0,7.5-2.6,10.8-7.8L199.1,3h-13.2
			l-35.2,56c-1.2,2.1-4,3-5.5,0.3c-1.5-2.6-21.5-38.7-26-46.6C114.6,4.9,107.3,0,99.5,0S84.5,4.9,80,12.7c-4.5,7.9-24.5,44-26,46.6
			c-1.6,2.6-4.3,1.8-5.5-0.3L13.2,3H0l40.4,62.9c3.3,5.2,4.7,7.8,10.7,7.8c6.1,0,8.8-4.9,10.4-6.8l26.3-47.4
			C90.9,14.5,93.5,11.3,99.5,11.3z"/>
	</g>
	<g>
		<path class="st0" d="M99.9,126.1c2.3,0,2.8,2.6,2.8,2.6l24,42.1c6,9.5,13.2,13.5,23.6,13.5c10.4,0,17.1-5.6,21.7-12.3l26.7-42.6
			V55.2l-32,50.7c-5.6,7.9-8.5,12.4-18.5,12.4c-9.9,0-13.7-5.2-17.6-11.3l-25-43.7c0,0-3.2-4.9-5.7-4.9c-2.6,0-5.8,4.9-5.8,4.9
			l-25,43.7c-3.9,6-7.7,11.3-17.6,11.3c-9.9,0-12.9-4.5-18.5-12.4L0.4,55.2v74.2L27.8,172c4.6,6.7,11.3,12.3,21.7,12.3
			c10.4,0,17.6-4,23.6-13.5l24-42.1C97.1,128.7,97.6,126.1,99.9,126.1z"/>
	</g>
</g>
<path class="st1" d="M323.2,70.6l0.5,0c4.4,0.2,4.9,1.1,4.9,2.9c0,1.1-0.2,2.2-0.5,3.1l-8.3,25.3l-8-24.7c-0.8-2.6-1.1-3.5-1.1-4.2
	c0-1.4,0.6-2.1,4.1-2.3l1.5-0.1v-2.9h-25.3v2.9l0.5,0c3.2,0.2,4.6,0.8,5.2,2.4l2.7,7.3l-8.6,22.5l-8.9-27.1
	c-0.4-1.3-0.5-1.8-0.5-2.4c0-1.8,0.4-2.5,4.5-2.8l0.5,0v-2.9h-23.9v2.9l0.4,0.1c3.1,0.4,3.7,1,5,4.7l16.7,47.3h2.9l14.1-36.3
	l13,36.3h2.8L333,75.3c0.9-2.9,2.6-4.4,5-4.6l0.5,0v-2.9h-15.2V70.6z"/>
<path class="st1" d="M372.6,66.5c-16.8,0-28.5,11.7-28.5,28.3c0,16.5,11.5,28,28,28c16.6,0,28.2-11.6,28.2-28.1
	C400.3,78.4,388.6,66.5,372.6,66.5z M385.5,95.3c0,10.9-2.3,24-13.2,24c-8.8,0-13.4-8.4-13.4-24.1c0-15.9,4.7-25.1,13-25.1
	C380.7,70.1,385.5,79,385.5,95.3z"/>
<path class="st1" d="M439.9,66.5c-16.8,0-28.5,11.7-28.5,28.3c0,16.5,11.5,28,28,28c16.6,0,28.2-11.6,28.2-28.1
	C467.6,78.4,456,66.5,439.9,66.5z M452.8,95.3c0,10.9-2.3,24-13.2,24c-8.8,0-13.4-8.4-13.4-24.1c0-15.9,4.7-25.1,13-25.1
	C448,70.1,452.8,79,452.8,95.3z"/>
<path class="st1" d="M503,67.7h-24.8v2.9l0.5,0c5.1,0.5,6,1.7,6,4.7v37.9c0,3.5-1.8,5.1-6,5.2l-0.5,0v2.9h24.6
	c8.1,0,15.2-2.3,20-6.4c5.7-5,9.1-12.8,9.1-21C531.9,77.5,521.1,67.7,503,67.7z M498.2,74.3c0-1.5,0.4-2.9,3.6-2.9
	c5.5,0,9.2,2.4,12.3,7.6c2.1,3.7,3.1,9.1,3.1,16.2c0,6.9-1.5,13.8-3.8,17.1c-2.6,3.6-6.2,5.4-11.2,5.4c-3,0-4-1.1-4-4.6V74.3z"/>
<path class="st1" d="M579.8,92.4c7.2-2,10.6-5.7,10.6-11.7c0-8.2-7.3-13-20.2-13h-25.2v2.9l0.5,0c5.1,0.4,6.4,1.6,6.4,5.8v36.4
	c0,3.9-0.8,5-6.4,5.6l-0.4,0v2.9h26.2c13.3,0,21.9-6,21.9-15.2C593.1,99.5,587.9,94.2,579.8,92.4z M565.4,94.7h1.5
	c7.9,0,11.7,3.8,11.7,11.6c0,5.3-1.5,11.7-8.9,11.7c-3.2,0-4.4-1.3-4.4-4.6V94.7z M565.4,91.3V74.7c0-2.7,1.1-3.7,3.9-3.7
	c4.9,0,7.2,3.3,7.2,10.2C576.6,87.9,574.9,91.2,565.4,91.3z"/>
<path class="st1" d="M658.9,117l-15.1-21.4c4.2-1.2,6.2-2.5,8.3-4.4c2.3-2.1,3.7-5.8,3.7-9.6c0-9.2-7.9-13.9-23.6-13.9h-24.5v2.9
	l0.5,0c5.4,0.4,6.4,1.5,6.4,7.3v33.6c0,6-0.6,6.2-6.4,6.9l-0.4,0.1v2.9h27.4v-2.9l-0.4-0.1c-5.9-0.8-6.4-1.3-6.4-6.7V97h1.4
	l16.1,24.4h16.8v-3h-0.5C660.7,118.5,659.5,117.9,658.9,117z M641.3,82.4c0,7.5-1.9,10.9-13.3,11.1V74.3c0-2.3,0.9-3,3.6-3
	C638.6,71.3,641.3,74.4,641.3,82.4z"/>
<path class="st1" d="M672.9,70.6l0.5,0c5.5,0.4,6.8,1.4,6.8,5.4v36.7c0,4.4-1,5.3-6.8,5.8l-0.5,0v2.9h28.3v-2.9l-0.5,0
	c-6-0.4-6.9-1.2-6.9-5.8V76c0-4.1,1.4-5.1,6.9-5.3l0.5,0v-2.9h-28.3V70.6z"/>
<path class="st1" d="M739.8,67.7h-24.8v2.9l0.5,0c5.1,0.5,6,1.7,6,4.7v37.9c0,3.5-1.8,5.1-6,5.2l-0.5,0v2.9h24.6
	c8.1,0,15.2-2.3,20-6.4c5.7-5,9.1-12.8,9.1-21C768.7,77.5,757.9,67.7,739.8,67.7z M735,74.3c0-1.5,0.4-2.9,3.6-2.9
	c5.5,0,9.2,2.4,12.3,7.6c2.1,3.7,3.1,9.1,3.1,16.2c0,6.9-1.5,13.8-3.8,17.1c-2.6,3.6-6.2,5.4-11.2,5.4c-3,0-4-1.1-4-4.6V74.3z"/>
<path class="st1" d="M808.9,100.9l0.5,0c6.8,0.4,7.5,1.8,7.5,5.3v6.9c0,4.2-2.2,6.1-7,6.1c-5.5,0-8.9-1.9-11.7-6.5
	c-2.5-4.1-3.7-10.1-3.7-18.2c0-15.5,5-24.5,13.9-24.5c3.7,0,7.3,1.5,10.4,4.2c3.2,2.8,4.6,5.4,7.4,11.5l0.1,0.3h2.8V66.7h-2.9
	L826,67c-1.2,2.8-1.8,3.3-3,3.3c-0.7,0-1.7-0.3-3.4-1.1c-4.8-2-8.3-2.8-12.3-2.8c-15.5,0-27.6,12.6-27.6,28.6
	c0,16.4,11.6,27.8,28.2,27.8c8.1,0,16.7-2,21.9-5l0.2-0.1v-9.5c0-4.6,0.6-6.7,6.3-7.3l0.4,0V98h-27.8V100.9z"/>
<path class="st1" d="M893.3,104.2l-0.1,0.3c-2.2,4.8-3.6,7.2-6.3,9.4c-3.4,2.8-7.7,4.1-13.9,4.1c-5.1,0-6-1-6-3.9V95.7
	c8.1,0.1,10.9,3,11.6,11.6l0,0.5h3V80.5h-3l0,0.4c-0.9,8.3-3.6,11-11.6,11.2V75c0-2.6,0.7-3.7,4.6-3.7c12.6,0,16.3,2.6,18,12.6
	l0.1,0.4h2.9V67.7h-46v2.9l0.5,0c5.4,0.3,6.4,1.6,6.4,5V113c0,3.7-0.8,4.8-6.4,5.4l-0.4,0v2.9h46.5l3.3-17.2H893.3z"/>
<path class="st1" d="M924.3,74.7c0,1.3-0.2,2.5-0.7,3.6c-0.5,1.1-1.1,2-1.9,2.8c-0.8,0.8-1.7,1.4-2.7,1.8s-2.1,0.6-3.3,0.6
	c-1.3,0-2.4-0.2-3.5-0.7c-1-0.4-2-1.1-2.7-1.8c-0.8-0.8-1.3-1.7-1.8-2.8c-0.4-1.1-0.6-2.2-0.6-3.5c0-1.3,0.2-2.5,0.7-3.6
	c0.5-1.1,1.1-2,1.9-2.8s1.7-1.4,2.7-1.8c1-0.4,2.1-0.6,3.3-0.6c1.1,0,2.2,0.2,3.3,0.6s1.9,1,2.7,1.8s1.4,1.7,1.9,2.8
	C924.1,72.2,924.3,73.4,924.3,74.7z M922.4,74.7c0-1.1-0.2-2-0.5-2.9s-0.8-1.6-1.4-2.3s-1.3-1.1-2.1-1.5c-0.8-0.3-1.7-0.5-2.6-0.5
	c-0.9,0-1.8,0.2-2.6,0.5c-0.8,0.4-1.5,0.8-2.1,1.5c-0.6,0.6-1.1,1.4-1.4,2.3c-0.3,0.9-0.5,1.9-0.5,2.9c0,1,0.2,1.9,0.5,2.8
	c0.3,0.9,0.8,1.6,1.3,2.3c0.6,0.7,1.3,1.2,2.1,1.6s1.8,0.6,2.8,0.6c0.9,0,1.8-0.2,2.6-0.5c0.8-0.3,1.5-0.8,2.1-1.5
	c0.6-0.6,1.1-1.4,1.4-2.3S922.4,75.8,922.4,74.7z M914,79.7h-1.6v-9.7h3.7c1.2,0,2,0.2,2.6,0.7s0.9,1.1,0.9,2.1
	c0,0.9-0.2,1.5-0.7,1.9c-0.5,0.4-1.1,0.6-1.8,0.7l2.7,4.2H918l-2.5-4.1H914V79.7z M915.8,74.3c0.3,0,0.6,0,0.9,0
	c0.3,0,0.5-0.1,0.7-0.2c0.2-0.1,0.4-0.3,0.5-0.5c0.1-0.2,0.2-0.5,0.2-0.8c0-0.3-0.1-0.5-0.2-0.7s-0.3-0.3-0.5-0.4
	c-0.2-0.1-0.4-0.2-0.7-0.2s-0.5,0-0.7,0H914v2.8H915.8z"/>
</svg>
