<?xml version="1.0" encoding="UTF-8"?>
<svg width="60px" height="60px" viewBox="0 0 60 60" version="1.1" xmlns="http://www.w3.org/2000/svg" xmlns:xlink="http://www.w3.org/1999/xlink">
    <title>logo-w</title>
    <g id="mob导航" stroke="none" stroke-width="1" fill="none" fill-rule="evenodd">
        <g id="logo-w">
            <rect id="矩形" fill-opacity="0" fill="#000000" x="0" y="0" width="60" height="60"></rect>
            <g id="黑色logo_画板-1" transform="translate(18.000000, 10.000000)" fill="#FFFFFF" fill-rule="nonzero">
                <path d="M23.3477478,0 L10.7919428,0 C10.6922831,0 10.5952461,0.0445857784 10.5414823,0.127200603 C10.4746054,0.233419664 10.5034543,0.333081992 10.5257466,0.382913156 L10.5729538,0.461593942 C11.2259868,1.47657607 12.5018926,3.77536636 12.9726533,6.86358719 C13.1064071,7.74087795 13.3686693,8.59325312 13.7646853,9.38661771 C14.534425,10.9326951 14.892413,12.389601 15.0301007,13.8137232 C15.1232038,14.7841196 14.9855161,15.762384 14.9330636,16.1361178 C14.694405,17.8067731 14.2367574,18.9135495 13.1942649,20.5920729 C11.9681889,22.5669606 11.0096204,23.9215815 10.8378386,25.8899125 C10.7434242,26.974396 10.9584793,27.9933121 11.172223,28.6922598 C11.3846554,29.351867 11.6888796,30.0599941 12.1019427,30.8258204 L12.1019427,30.8258204 C12.1019427,30.8258204 12.2514322,31.1090712 12.2855263,31.1523457 C12.3576484,31.2572534 12.478289,31.3267547 12.6159767,31.3267547 C12.6356464,31.3267547 12.655316,31.3254434 12.6749857,31.3228207 C12.7982489,31.3044619 12.9005312,31.2192243 12.9608515,31.1103826 L13.0290397,30.9844933 C13.0565773,30.9333508 13.0919827,30.8690948 13.1352559,30.7904141 L13.1352559,30.7904141 C13.6020827,29.9563977 14.9592899,27.6903911 15.9755561,26.4669049 C15.9768674,26.4655935 15.9781787,26.4629709 15.97949,26.4616595 C16.4581186,25.8269678 17.167538,25.2971839 17.167538,25.2971839 L17.167538,25.2971839 C17.4966771,25.0427827 17.9333437,24.8237878 18.6480084,24.775268 C19.5593697,24.7136347 20.314685,25.009999 21.0922925,25.90696 C21.7663065,26.6858997 22.7812614,28.8063469 23.3451252,29.8868964 C23.4080682,30.0075402 23.6847548,30.555683 23.1917018,30.8402452 C22.8573174,31.0343245 22.5111313,30.8677835 22.1859261,30.3786513 C22.1216718,30.2816116 20.4812215,28.0667475 19.9803006,27.5317182 C19.9488291,27.4963118 19.9121124,27.4622168 19.8740844,27.4281218 C19.6865669,27.2602695 19.4492195,27.1461823 19.185646,27.1133987 C19.185646,27.1133987 19.1830234,27.1133987 19.1830234,27.1133987 C19.1305709,27.1068419 19.0781185,27.1029079 19.0230434,27.1029079 L19.0230434,27.1029079 C18.9797701,27.1029079 18.9378082,27.1055306 18.8945349,27.1094646 C18.8748652,27.110776 18.8565069,27.11471 18.8368372,27.1186441 C18.8145449,27.1212668 18.7935639,27.1238895 18.7712716,27.1291348 C18.7437341,27.1343802 18.7175079,27.1422483 18.6899703,27.148805 C18.6768572,27.1527391 18.6650554,27.1553618 18.6519423,27.1579845 C18.6204708,27.1671639 18.5889994,27.178966 18.5588392,27.1907681 C18.5522826,27.1933908 18.5457261,27.1947022 18.5391695,27.1973249 C18.5050754,27.2117497 18.4722927,27.2274858 18.4395099,27.243222 C18.4368873,27.243222 18.4342646,27.2458447 18.4329533,27.247156 C18.3149353,27.3087893 18.2074078,27.3874701 18.1143047,27.481887 C18.1129934,27.4831984 18.0343147,27.5710586 18.0198903,27.5894174 C17.6553458,28.0339639 16.6102307,29.5131626 15.9362167,31.2795463 C15.7093599,31.8735862 15.4405411,32.788906 15.4287393,32.8452939 C15.0419025,34.5329968 15.3408814,35.2253877 16.4961466,36.5380454 C16.5394199,36.5865653 18.4578682,38.5785005 19.4098802,39.4689047 C19.7744247,39.8111661 20.2569873,40 20.7565968,40 L23.3503705,40 C24.2617318,40 25,39.261712 25,38.3503262 L25,1.6496738 C25,0.738288037 24.2617318,0 23.3503705,0 L23.3477478,0 Z" id="路径"></path>
                <path d="M14.931896,39.5528748 C13.5520682,37.9649905 8.99389662,32.4486986 8.27238362,28.0692323 C8.05382311,26.7422802 8.12755436,25.6238117 8.37771398,24.6390874 C8.37771398,24.6390874 8.37771398,24.6390874 8.37771398,24.6390874 C8.38561376,24.594506 8.39219691,24.5499246 8.40141331,24.5053432 C8.75032015,22.8335409 10.5185537,20.4445027 11.2295336,19.3732381 C11.9405136,18.3006622 12.518514,17.0182915 12.5909286,15.6559365 C12.6304275,14.9137875 12.493498,14.1690159 12.3315526,13.5815905 C12.3315526,13.5802793 12.3315526,13.5776569 12.330236,13.5763456 C12.3289193,13.5697895 12.3262861,13.5645447 12.3249694,13.5579886 C12.3170697,13.5291418 12.3091699,13.5016062 12.3012701,13.4740707 C12.2920537,13.4412902 12.2828373,13.409821 12.2723043,13.3770406 C12.2630879,13.3468826 12.2538714,13.3180358 12.2459717,13.2905002 C12.2433384,13.2839441 12.2420218,13.2760768 12.2393885,13.2695208 C12.1551242,13.0020324 12.0708599,12.7843703 12.0076617,12.6348915 C11.8496662,12.2480823 11.7061535,11.968793 11.6600715,11.8822527 C11.6600715,11.8809415 11.6100396,11.7957123 11.5929234,11.7668655 C11.523142,11.6541008 11.395429,11.5806727 11.253233,11.5806727 C11.111037,11.5806727 10.9899071,11.6514784 10.9174924,11.7589982 L10.9148592,11.7616207 C10.3513417,12.5732643 9.76017503,13.5081623 8.71740441,14.5414017 C8.28160002,14.9727922 7.65225109,15.5405494 6.54101573,15.5667737 C5.62332491,15.5877532 4.87811257,15.2665049 4.13421686,14.338163 C3.48906837,13.5330755 2.44103123,11.0928998 1.91964592,9.99016587 C1.86171422,9.86691143 1.60628808,9.30833279 2.11187384,9.04346686 C2.45551416,8.86383007 2.79652122,9.04346686 3.10329591,9.54435193 C3.56279963,10.298302 4.66745184,11.968793 5.28758437,12.7122533 C5.69310628,13.198715 6.51468313,13.5317642 7.19274736,12.8774667 C7.4613398,12.6191569 8.87539996,10.7703403 9.75490852,8.65272405 C10.0432504,7.95909002 10.3710912,6.96256474 10.0564167,5.67757163 C9.52976486,3.52193011 7.95375926,1.58263948 6.96497045,0.605782469 C6.93732123,0.57955812 6.90835538,0.55333377 6.88202278,0.528420639 C6.52916606,0.199305055 6.06702908,0.0144233921 5.58514265,0 L1.65632,0 C0.74126245,0 0,0.738215433 0,1.64951157 L0,38.3504884 C0,39.2617846 0.74126245,40 1.65632,40 L14.7093856,40 C14.7093856,40 14.7278184,40 14.7278184,40 C14.9595452,40 15.0859417,39.728578 14.9332126,39.5541861 L14.931896,39.5528748 Z" id="路径"></path>
            </g>
        </g>
    </g>
</svg>