<?xml version="1.0" encoding="UTF-8"?>
<svg width="84px" height="27px" viewBox="0 0 84 27" version="1.1" xmlns="http://www.w3.org/2000/svg" xmlns:xlink="http://www.w3.org/1999/xlink">
    <title>大众logo</title>
    <g id="2-ID.4-X" stroke="none" stroke-width="1" fill="none" fill-rule="evenodd">
        <g id="1-1-1ID详情页-上" transform="translate(-1756.000000, -22.000000)" fill="#FFFFFF" fill-rule="nonzero">
            <g id="编组-21" transform="translate(162.000000, 18.000000)">
                <g id="大众logo" transform="translate(1594.000000, 4.840203)">
                    <path d="M50.8272963,6.60363909 C50.7144955,6.59388482 50.5828945,6.58413056 50.4606936,6.58413056 L44.7266502,6.58413056 C44.4728483,6.57437629 44.4634483,6.56462202 44.4634483,6.3012568 L44.4634483,4.60401426 C44.4634483,4.31138623 44.4728483,4.30163196 44.7736506,4.30163196 L50.9870975,4.30163196 C50.9964976,4.14556368 51.0058977,4.02851247 51.0058977,3.91146126 L51.0058977,0.702307259 L51.0058977,0.487713375 C51.0058977,0.341399362 51.0810982,0.282873757 51.2126992,0.292628025 L53.562717,0.292628025 C53.8635193,0.292628025 53.8729193,0.302382292 53.8729193,0.624273119 L53.8729193,3.95047833 C53.8823194,4.28212343 53.8917195,4.2918777 54.2113219,4.30163196 L60.5375697,4.30163196 C60.9511728,4.30163196 60.9511728,4.30163196 60.9511728,4.72106547 L60.9511728,6.17445132 C60.9511728,6.59388482 60.9511728,6.59388482 60.5375697,6.59388482 L54.4745239,6.59388482 C53.9481199,6.59388482 53.95752,6.59388482 54.0609207,7.12061527 C54.3993233,8.76908648 55.2359296,10.1151754 56.3921384,11.2564247 C57.3227454,12.1733258 58.3849534,12.9146502 59.4941618,13.5779403 C60.1145665,13.9486025 60.7537713,14.2802476 61.3835761,14.621647 C61.4399765,14.6509098 61.505777,14.6899268 61.5527773,14.7289439 C61.4963769,14.9532921 60.3683684,16.84562 60.1145665,17.138248 C57.0595434,15.7238792 54.4745239,13.675483 52.4817088,10.8174826 C52.4253084,10.866254 52.368908,10.8955168 52.3501078,10.9442881 C51.6545026,12.3879197 50.5640943,13.4706434 49.3608852,14.4460702 C48.1952764,15.3824798 46.9356669,16.153067 45.619657,16.8261114 C45.488056,16.8943913 45.3470549,16.9431626 45.1778537,17.0211968 C44.7266502,16.2603639 44.2848469,15.5190396 43.8242434,14.7484524 C44.1438458,14.5728756 44.425848,14.4168074 44.7172502,14.2607391 C46.2400617,13.4023635 47.612472,12.3391484 48.8720816,11.1003564 C49.9718899,10.0078784 50.5922945,8.69105234 50.8178963,7.14987807 C50.8460965,6.97430126 50.921297,6.79872444 50.8272963,6.60363909 L50.8272963,6.60363909 Z M9.84298677,13.4803977 L17.3912438,13.4803977 C17.7860468,13.4803977 17.7860468,13.4803977 17.7860468,13.8803226 L17.7860468,15.7628963 C17.7860468,16.0750328 17.7672466,16.0945414 17.4664443,16.0945414 L0.471115984,16.0945414 C-0.0458879206,16.0945414 0.00111243444,16.0945414 0.00111243444,15.606828 L0.00111243444,13.821797 C0.00111243444,13.4901519 0.00111243444,13.4803977 0.33951499,13.4803977 L6.37436057,13.4803977 C6.76916355,13.4803977 6.76916355,13.4803977 6.76916355,13.0707184 L6.76916355,0.770587132 C6.76916355,0.15606828 6.7221632,0.224348152 7.29556753,0.224348152 L9.61738507,0.224348152 C9.77718627,0.214593885 9.8335867,0.302382292 9.82418663,0.448696305 L9.82418663,4.82836241 C9.82418663,4.95516789 9.8335867,5.09172763 9.84298677,5.24779591 C9.98398783,5.25755018 10.1061888,5.27705871 10.2377898,5.27705871 L15.7932317,5.27705871 C16.1974348,5.27705871 16.1974348,5.27705871 16.1974348,5.70624648 L16.1974348,7.61808291 C16.1974348,7.99849934 16.1974348,7.99849934 15.8402321,7.99849934 L10.2847901,7.99849934 C9.82418663,7.99849934 9.82418663,7.99849934 9.82418663,8.46670418 L9.82418663,13.0317014 C9.82418663,13.1585068 9.8335867,13.2853123 9.84298677,13.4803977 L9.84298677,13.4803977 Z M69.42989,7.54980304 C70.097295,7.54980304 70.7553,7.55955731 71.422705,7.55955731 L71.6295066,7.55955731 C71.8457082,7.56931157 71.8739084,7.58882011 71.8645083,7.81316826 C71.8457082,8.2228475 71.8269081,8.63252673 71.7705076,9.04220597 C71.7329073,9.33483399 71.7517075,9.60795348 71.8645083,9.88107297 C72.4379127,11.305196 73.2275186,12.5927593 74.2145261,13.7437629 C74.2615264,13.8022885 74.3085268,13.8510598 74.3649272,13.8998312 C74.3931274,13.929094 74.4307277,13.9388482 74.5247284,13.9876196 C74.5623287,13.929094 74.599929,13.8510598 74.6469294,13.7925342 C75.7091374,12.3684112 76.4047426,10.7784656 76.6679446,8.99343463 C76.724345,8.60326393 76.7525453,8.20333896 76.7901455,7.80341399 C76.8089457,7.59857438 76.8183458,7.56931157 77.0157472,7.56931157 L78.9427618,7.56931157 C79.1401633,7.56931157 79.1871636,7.60832864 79.2153639,7.81316826 C79.234164,7.94972801 79.2435641,8.10579629 79.2153639,8.24235603 C79.1683635,8.48621272 79.2059638,8.71056087 79.2811644,8.93490902 C79.6947675,10.2614894 80.3433724,11.45151 81.1611786,12.543988 C81.8943841,13.5096605 82.7403905,14.3485275 83.7085978,15.0703433 C83.7931984,15.1386231 83.8777991,15.206903 84,15.2946914 C83.4359957,15.9189645 82.9001917,16.5237291 82.3267874,17.1480023 C80.7099752,15.9384731 79.3845651,14.5045958 78.3881576,12.6707935 C78.303557,12.8171075 78.2471565,12.9048959 78.2095563,13.0024386 C77.5327512,14.621647 76.5269436,15.9677359 75.1545332,17.0211968 C75.0323323,17.1187394 74.9101313,17.2162821 74.7691303,17.3333333 C73.9513241,16.738323 73.2369187,16.0555243 72.5507135,15.3239542 C71.8739084,14.6021384 71.3005041,13.8022885 70.7458999,12.8853874 C70.6424991,13.0804727 70.5766986,13.2072782 70.5108981,13.3438379 C69.7776926,14.8362409 68.7530848,16.0652786 67.3994746,16.991934 C67.3336741,17.0407053 67.2678736,17.0797224 67.2020731,17.1187394 C67.1644728,17.138248 67.1268726,17.1480023 67.0610721,17.1772651 C66.4500674,16.6310261 65.8296628,16.0847871 65.1716578,15.499531 C65.2844586,15.4019884 65.3784594,15.3239542 65.46306,15.2459201 C66.7414696,14.221722 67.7660774,12.9634215 68.4992829,11.4612643 C69.0256869,10.3785406 69.3546894,9.22753705 69.4110898,8.00825361 C69.42989,7.8619396 69.43929,7.69611705 69.42989,7.54980304 L69.42989,7.54980304 Z M28.3141263,5.42337273 C28.4457273,5.43312699 28.5773283,5.45263553 28.7183293,5.45263553 L37.3945949,5.45263553 C37.939799,5.45263553 37.8833986,5.42337273 37.8833986,5.96961171 L37.8833986,7.0815982 C37.8833986,7.28643782 37.8551983,7.30594635 37.6577969,7.31570062 L28.5773283,7.31570062 C28.2483258,7.31570062 28.2483258,7.30594635 28.2483258,6.97430126 C28.2483258,6.59388482 28.2577259,6.21346839 28.2577259,5.83305196 C28.2577259,5.74526355 28.2483258,5.65747515 28.2389257,5.50140687 C28.144925,5.59894954 28.0885246,5.64772088 28.0509243,5.71600075 C27.8253226,6.07690865 27.5997209,6.44757081 27.3741192,6.80847871 C27.3177188,6.89626712 27.2519183,6.98405552 27.1673176,7.10110673 C26.5469129,6.71093603 25.9453084,6.34027387 25.3155036,5.9403489 C26.5375129,3.94072407 27.740722,1.96060777 28.934531,0 C29.2353332,0.0682798724 30.6735441,0.877884074 30.8803457,1.08272369 C30.6735441,1.43387732 30.4667425,1.78503095 30.2223407,2.18495592 C30.3539417,2.21421872 30.4385423,2.24348152 30.5137429,2.24348152 C30.7487447,2.25323579 30.9931465,2.24348152 31.2281483,2.24348152 L37.9961994,2.24348152 C38.4286027,2.24348152 38.4286027,2.24348152 38.4286027,2.67266929 L38.4286027,4.05777528 C38.4286027,4.42843744 38.4286027,4.42843744 38.0619999,4.42843744 L29.3575342,4.42843744 C28.7371295,4.42843744 28.8687305,4.3796661 28.5585281,4.87713375 C28.4645274,5.03320203 28.3705267,5.18927031 28.276526,5.33558432 C28.2859261,5.36484712 28.2953261,5.39410992 28.3141263,5.42337273 L28.3141263,5.42337273 Z" id="形状"></path>
                    <path d="M69.3284261,6.89460594 C69.2251052,6.91294266 69.1217842,6.9037743 69.0184633,6.94044774 C68.3233951,7.16965671 67.6377198,7.39886569 66.9426516,7.62807466 C66.8393307,7.6647481 66.7360097,7.68308482 66.5951175,7.71975825 C66.1630481,7.1054782 65.76855,6.46369307 65.3364806,5.81273959 C65.4398015,5.77606615 65.5055512,5.75772943 65.5619081,5.73939271 C66.9802229,5.41850015 68.3233951,4.93257713 69.5726392,4.19910841 C70.690384,3.54815492 71.6578437,2.73217097 72.3435191,1.6319679 C72.6159106,1.19188667 72.8225525,0.724300359 72.9728375,0.229208974 C73.0385872,0.00916835897 73.0385872,0 73.2734076,0 L75.2365055,0 C75.3680049,0 75.4525402,0.0183367179 75.4995042,0.165030461 C75.8846096,1.56778938 76.8051052,2.58547723 77.9604212,3.43813461 C79.078166,4.26328692 80.3274101,4.83172518 81.6517968,5.26263805 C82.2247583,5.44600523 82.8071127,5.60186733 83.4082528,5.77606615 C83.3894672,5.8310763 83.3894672,5.89525482 83.3518959,5.95026497 C83.0325403,6.48202979 82.7037918,7.01379461 82.3844362,7.54555943 C82.3092937,7.6647481 82.2341512,7.72892661 82.0744733,7.69225318 C79.9423048,7.12381492 77.9134572,6.33533605 76.1100371,5.06093415 C75.4807186,4.62085292 74.9171498,4.09825646 74.456902,3.49314477 C74.4099379,3.42896625 74.3535811,3.38312446 74.2878314,3.31894595 C74.2314745,3.36478774 74.1845104,3.40146118 74.1469392,3.43813461 C73.4049069,4.39164395 72.4750185,5.13428102 71.4230234,5.73939271 C70.840669,6.078622 70.2207433,6.36284112 69.6196033,6.67456533 C69.5162824,6.73874384 69.4223542,6.82125907 69.3284261,6.89460594 C69.3190333,6.9037743 69.3284261,6.89460594 69.3284261,6.89460594 Z M38.3603217,11.6896577 C38.4636426,11.7446678 38.5387851,11.7721729 38.6139276,11.8180147 C39.0647826,12.0838971 39.5062448,12.3589479 39.9570999,12.6156619 C40.1073849,12.6981772 40.1543489,12.7898608 40.1261705,12.9640596 C40.051028,13.5508346 39.9101358,14.1192728 39.6095658,14.6418693 C39.2432461,15.2928228 38.7172485,15.7604091 37.9658235,15.9071028 C36.8011147,16.1363118 35.7960837,15.7970825 35.2325149,14.7427212 C34.9131593,14.1376095 34.7722671,13.486656 34.7534815,12.8173658 C34.7346958,11.9555401 34.7534815,11.1028827 34.7440887,10.241057 L34.7440887,10.011848 C34.7440887,9.91099605 34.6877318,9.84681753 34.5844108,9.83764917 C34.4810899,9.82848081 34.3683761,9.82848081 34.2556624,9.82848081 L26.9856251,9.82848081 C26.5347701,9.82848081 26.5347701,9.82848081 26.5441629,9.37923123 C26.5535557,8.95748671 26.5535557,8.52657384 26.5535557,8.10482933 C26.5535557,7.77476841 26.5535557,7.77476841 26.9104826,7.77476841 L36.7259722,7.77476841 C36.9326141,7.78393676 36.9513997,7.81144184 36.9701853,8.0223141 L36.9701853,8.25152307 C36.9701853,9.59927184 36.9607925,10.956189 36.9701853,12.3039377 C36.9701853,12.5423151 37.0171494,12.7806924 37.0641135,13.0190697 C37.1016847,13.2024369 37.1956128,13.3766357 37.4210404,13.3949725 C37.6464679,13.4133092 37.8155385,13.3032889 37.9000738,13.1107533 C38.0315732,12.7990291 38.144287,12.4781366 38.2476079,12.157244 C38.294572,12.0197186 38.3227504,11.8638565 38.3603217,11.6896577 L38.3603217,11.6896577 Z M60.29254,18.721789 C60.1610406,19.2718906 60.038934,19.7578136 59.9168275,20.2437366 C59.541115,21.7473475 59.1747953,23.24179 58.7990827,24.7454009 C58.686369,25.2038188 58.7427259,25.1854821 58.235514,25.1854821 L57.6155883,25.1854821 C57.3150183,25.1854821 57.3056255,25.1763137 57.230483,24.901263 C56.9580914,23.9110802 56.6856998,22.9208974 56.422701,21.939883 C56.3099873,21.5089701 56.1878807,21.0780573 56.0657742,20.6563128 C56.0375957,20.5737975 56.0000245,20.4821139 55.971846,20.3995987 L55.8967035,20.3995987 C55.8591323,20.5004507 55.8121682,20.6013026 55.7839898,20.7113229 C55.5397766,21.5914854 55.3049563,22.4624795 55.070136,23.3426419 C54.9292438,23.8744068 54.7883516,24.4061716 54.6380666,24.9379364 C54.5723169,25.1854821 54.5535313,25.1946504 54.2905325,25.1946504 L53.4263937,25.1946504 C53.1633949,25.1946504 53.1446093,25.1763137 53.0882524,24.928768 C52.7688968,23.6451978 52.458934,22.3616275 52.1395783,21.0780573 C51.9705077,20.3995987 51.8108299,19.7303085 51.6417592,19.0518499 C51.6229736,18.9693347 51.6135808,18.8868195 51.5947952,18.7859675 C51.6793305,18.7676308 51.7450802,18.7401257 51.8108299,18.7401257 C52.0644358,18.7309574 52.3274346,18.7309574 52.5810405,18.7401257 C52.8440393,18.7401257 52.8628249,18.7584625 52.9191818,19.0060081 C53.1164309,19.8861706 53.3136799,20.7571647 53.510929,21.6373272 C53.61425,22.0774084 53.7081781,22.526658 53.811499,22.9667392 C53.8302847,23.0309177 53.8584631,23.0859279 53.8866415,23.1592748 C54.0181409,23.0859279 54.0181409,22.9759076 54.0463194,22.8750556 C54.3938534,21.6006537 54.7413875,20.3170835 55.0983144,19.0426816 C55.1828497,18.7492941 55.1828497,18.7401257 55.5022054,18.7401257 L56.3945226,18.7401257 C56.7420567,18.7401257 56.7420567,18.7401257 56.826592,19.079355 C57.1459476,20.3445886 57.4746961,21.6098221 57.7940517,22.8658873 C57.8222302,22.9850759 57.8410158,23.1042646 57.9255511,23.2234533 C58.0476577,23.1317697 58.0476577,23.012581 58.0758361,22.9025607 C58.3670133,21.6006537 58.6675834,20.3079151 58.9587606,19.0060081 C59.0151174,18.7492941 59.0245102,18.7401257 59.287509,18.7401257 C59.6162575,18.721789 59.9262203,18.721789 60.29254,18.721789 L60.29254,18.721789 Z M82.8165056,23.012581 C82.8258984,22.9025607 82.844684,22.7925404 82.844684,22.6916884 L82.844684,19.1251968 C82.844684,18.7309574 82.844684,18.7309574 83.248575,18.7309574 L83.7276084,18.7309574 C83.9718216,18.7401257 83.9906072,18.7584625 84,19.0060081 L84,24.800411 C84,25.1946504 84,25.1946504 83.5867162,25.1946504 C83.3894672,25.1946504 83.1922181,25.1854821 82.994969,25.1946504 C82.7789343,25.2129872 82.6568277,25.1213036 82.544114,24.9471048 C81.9805452,24.0394372 81.3981908,23.140938 80.834622,22.2332705 C80.6185873,21.8940412 80.4119454,21.5548119 80.1959107,21.224751 C80.1489467,21.1514041 80.083197,21.0780573 80.0268401,21.0047104 C80.0080545,21.0138788 79.979876,21.0138788 79.9610904,21.0230471 C79.9516976,21.1422358 79.9235192,21.2614244 79.9235192,21.3806131 L79.9235192,25.0021149 C79.9235192,25.1304719 79.8483767,25.1946504 79.7168773,25.1946504 L78.974845,25.1946504 C78.8433457,25.1946504 78.7682032,25.1396403 78.777596,25.0021149 L78.777596,24.8279161 L78.777596,19.0885234 L78.777596,18.9693347 C78.7869888,18.7492941 78.8057744,18.7309574 79.0405947,18.7309574 C79.2848079,18.7309574 79.5384138,18.7401257 79.782627,18.7309574 C79.9610904,18.721789 80.0738042,18.7951359 80.1677323,18.9418296 C80.4683023,19.4277527 80.7688723,19.9136757 81.0788352,20.3995987 C81.5766542,21.1972459 82.0838661,21.9948932 82.5816852,22.7925404 C82.6380421,22.8750556 82.694399,22.9575709 82.7601487,23.0400861 C82.7601487,23.0217494 82.7883271,23.0217494 82.8165056,23.012581 L82.8165056,23.012581 Z M72.1274844,20.4454405 C71.742379,20.5187874 71.4136306,20.5829659 71.0848821,20.6471444 C70.9439899,20.6746495 70.8500618,20.6196393 70.7843121,20.4821139 C70.4743493,19.8678339 69.9389589,19.6386249 69.2532836,19.6477933 C68.5957867,19.6569616 68.0603963,19.895339 67.6940766,20.4362721 C67.5907557,20.5921342 67.5062204,20.7755014 67.4498635,20.9588686 C67.2620072,21.6740006 67.2714001,22.3891326 67.5343988,23.0950962 C67.8161832,23.8652384 68.6239651,24.3511614 69.5444608,24.2411411 C69.9483518,24.1952993 70.3052787,24.0486056 70.6622055,23.8652384 C70.8782402,23.7552181 70.990954,23.599356 70.9627756,23.3609787 C70.9439899,23.1867798 70.9439899,23.0034127 70.9345971,22.8017088 C70.8030977,22.7925404 70.7091696,22.783372 70.6058487,22.783372 L69.6289961,22.783372 C69.4035686,22.783372 69.384783,22.755867 69.3753902,22.526658 L69.3753902,21.9490514 C69.3753902,21.8023576 69.431747,21.7381791 69.5820321,21.7381791 L72.0147706,21.7381791 C72.2026269,21.7381791 72.2308053,21.7656842 72.2308053,21.9673881 C72.2308053,22.6825201 72.2308053,23.3976521 72.2401981,24.1127841 C72.2401981,24.2961513 72.14627,24.3970032 72.0147706,24.4886868 C71.592094,24.7820743 71.1224534,24.9837782 70.6246343,25.1213036 C69.8544236,25.3413442 69.084213,25.3505125 68.3140023,25.157977 C67.2995785,24.8920946 66.6139031,24.2778146 66.2757619,23.3151369 C65.9282278,22.3432908 65.9282278,21.3622764 66.3321188,20.3995987 C66.7172241,19.4827628 67.4216851,18.8959878 68.4173232,18.6759472 C69.1029986,18.5292535 69.7980668,18.5475902 70.4743493,18.721789 C71.2351671,18.9234929 71.7611647,19.3819109 72.0429491,20.0970429 C72.0711275,20.2070632 72.0899131,20.3170835 72.1274844,20.4454405 L72.1274844,20.4454405 Z M34.4905561,22.0040615 C34.4811633,22.526658 34.4154136,23.0309177 34.2087717,23.5076724 C33.7579167,24.5803704 32.9125635,25.157977 31.7478547,25.286334 C31.1373218,25.3505125 30.5173962,25.3321758 29.9350418,25.0937985 C28.8830467,24.672054 28.3006923,23.8835751 28.1034432,22.8108771 C27.9907295,22.1599236 28.0001223,21.4998018 28.1598001,20.8580167 C28.4603701,19.6569616 29.4278299,18.6667789 30.9682512,18.6209371 C31.4003206,18.6117687 31.8417828,18.6117687 32.2644594,18.7309574 C33.4855251,19.079355 34.1618076,19.895339 34.396628,21.0872256 C34.4623776,21.3806131 34.4623776,21.6923373 34.4905561,22.0040615 L34.4905561,22.0040615 Z M29.3151161,21.939883 C29.371473,22.2791123 29.3996514,22.6183416 29.4935796,22.9392341 C29.7096143,23.727713 30.4046824,24.2594778 31.23125,24.2778146 C32.0578175,24.2869829 32.7153144,23.8193966 32.9689204,23.1501064 C33.241312,22.4349744 33.2507048,21.6923373 33.0534557,20.9588686 C32.837421,20.1612214 32.1893169,19.6844667 31.3721422,19.6569616 C30.4798249,19.6294566 29.7565783,20.0787061 29.5029724,20.9130268 C29.3996514,21.2430877 29.371473,21.5914854 29.3151161,21.939883 L29.3151161,21.939883 Z M46.2221795,25.1854821 L44.7287222,25.1854821 C44.5690444,25.1854821 44.5032947,25.0754618 44.437545,24.9654415 C44.1557607,24.4886868 43.8739763,24.0119321 43.5827991,23.5351775 C43.3573715,23.1501064 43.1225512,22.7650353 42.8971237,22.3891326 C42.8501596,22.3066174 42.78441,22.2332705 42.7186603,22.1415869 C42.6435178,22.1874287 42.5777681,22.2241021 42.530804,22.2607756 C42.2396268,22.5358263 41.9578424,22.8292138 41.676058,23.1042646 C41.5633443,23.2051166 41.5351658,23.3334736 41.5351658,23.470999 L41.5351658,24.8645895 C41.5351658,25.1671454 41.5163802,25.1763137 41.2158102,25.1763137 L40.473778,25.1763137 C40.3422786,25.1763137 40.2671361,25.1121352 40.2765289,24.9837782 L40.2765289,24.8095794 L40.2765289,19.0701867 L40.2765289,18.8959878 C40.2765289,18.7767992 40.3328858,18.7126207 40.4549923,18.7126207 L41.3473096,18.7126207 C41.4882018,18.7126207 41.5351658,18.7859675 41.5351658,18.9143246 L41.5351658,21.2339194 C41.5351658,21.3347713 41.5445586,21.4356233 41.5539515,21.5456436 C41.7230221,21.5548119 41.7699862,21.4447916 41.8357358,21.3714448 C42.5871609,20.5737975 43.3385859,19.7853187 44.0806182,18.9785031 C44.2590816,18.7859675 44.4469379,18.6851156 44.7193294,18.7034523 C45.0574707,18.721789 45.395612,18.7034523 45.7243604,18.7126207 C45.7995029,18.7126207 45.8746454,18.721789 46.0155376,18.7309574 C45.1795773,19.5744464 44.3811882,20.3904303 43.5640134,21.2155827 C44.4563307,22.5449947 45.3204695,23.8377333 46.2221795,25.1854821 L46.2221795,25.1854821 Z M0,23.1501064 C0.403890959,23.113433 0.779603479,23.0767595 1.16470881,23.0400861 C1.19288725,23.113433 1.2304585,23.1684431 1.24924413,23.2326216 C1.49345727,24.1402892 2.29184637,24.3786665 3.04327141,24.2686462 C3.34384143,24.2228044 3.616233,24.1311208 3.8322677,23.9110802 C4.24555147,23.470999 4.14223053,22.9117291 3.56926894,22.6916884 C3.19355642,22.5449947 2.78966546,22.4624795 2.40456013,22.3524592 C2.03824042,22.2424389 1.6625279,22.1415869 1.30560101,22.0040615 C0.629318471,21.7198424 0.234820325,21.2064143 0.18785626,20.4912823 C0.150285008,19.8770022 0.46964065,19.2168804 1.22106569,18.8684828 C1.54981414,18.721789 1.89734823,18.6392738 2.25427512,18.6301054 C2.74270139,18.6117687 3.22173486,18.6117687 3.69137551,18.7492941 C4.42401492,18.9601663 4.9124412,19.4094159 5.08151183,20.152053 C5.10029746,20.252905 5.10029746,20.3537569 5.10969027,20.4637772 C4.72458494,20.6013026 4.35826523,20.5462924 4.00133834,20.5554608 C3.94498146,20.5554608 3.86044614,20.4821139 3.8322677,20.4271038 C3.72894676,20.152053 3.60684019,19.9045073 3.3250558,19.7761503 C2.97752172,19.6202882 2.62059483,19.5927831 2.25427512,19.6569616 C2.06641886,19.6844667 1.86916979,19.7486452 1.70009915,19.8494972 C1.31499382,20.0695378 1.29620819,20.5279557 1.67192071,20.7755014 C1.83159853,20.8855217 2.01945479,20.9588686 2.20731105,21.0138788 C2.55484513,21.1238991 2.91177203,21.1972459 3.26869892,21.2980979 C3.55048331,21.3806131 3.84166052,21.4631283 4.11405209,21.5639803 C4.80912025,21.8390311 5.23179684,22.3157857 5.32572497,23.0675912 C5.43843872,24.0211005 4.89365557,24.7820743 4.24555147,25.0387883 C3.95437427,25.157977 3.64441144,25.2496606 3.33444861,25.286334 C2.82723671,25.3413442 2.310632,25.3413442 1.79402728,25.2404922 C0.685675349,25.02962 0.046964065,24.1219524 0,23.1501064 L0,23.1501064 Z M51.331723,20.4454405 C50.9372249,20.5737975 50.5709052,20.5371241 50.2045855,20.5279557 C50.1482286,20.5279557 50.0636933,20.4546089 50.0449076,20.3904303 C49.9509795,20.1153796 49.8100873,19.8770022 49.5376957,19.7486452 C49.1995545,19.5836148 48.823842,19.5744464 48.4669151,19.6386249 C48.2790588,19.66613 48.0818097,19.7394769 47.9127391,19.8311605 C47.5182409,20.0603694 47.5088481,20.5462924 47.9127391,20.7755014 C48.1099882,20.8946901 48.3448085,20.9772053 48.570236,21.0413838 C48.9459485,21.1514041 49.3310539,21.2339194 49.7161592,21.3347713 C50.1012645,21.4356233 50.4675842,21.5639803 50.7963327,21.7931893 C51.2565805,22.1140818 51.5007937,22.5358263 51.5289721,23.0859279 C51.5477577,23.4893357 51.5289721,23.8744068 51.3223302,24.2411411 C51.0969027,24.6262122 50.7775471,24.9379364 50.3360848,25.0846301 C49.3874107,25.4055227 48.4293438,25.4330278 47.4900625,25.0662934 C46.6447093,24.7362325 46.2877824,24.0302689 46.1750687,23.1592748 C46.5789596,23.113433 46.9546722,23.0767595 47.3585631,23.0400861 C47.3867416,23.113433 47.4337056,23.1776115 47.4524913,23.24179 C47.71549,24.1494575 48.4575222,24.3786665 49.2559113,24.2686462 C49.3968035,24.2503095 49.5470886,24.2044677 49.6785879,24.1494575 C49.9040154,24.0577739 50.0824789,23.9019118 50.1857998,23.6910396 C50.3642633,23.3518103 50.279728,22.9759076 49.9415867,22.783372 C49.7443376,22.6641834 49.5095173,22.5908365 49.2840898,22.526658 C48.7580923,22.3707959 48.2227019,22.2332705 47.6873116,22.06824 C47.3867416,21.9765564 47.1425284,21.811526 46.9171009,21.6006537 C46.0341765,20.7755014 46.3159609,19.3177323 47.4712769,18.8409777 C47.8094181,18.7034523 48.166345,18.6209371 48.5326647,18.6117687 C49.0023054,18.6026003 49.4625532,18.6026003 49.9134083,18.7309574 C50.6460477,18.950998 51.1250811,19.4002476 51.2941518,20.1428847 C51.3223302,20.2345682 51.3223302,20.3262518 51.331723,20.4454405 L51.331723,20.4454405 Z M73.0385139,21.939883 L73.0385139,19.1343652 L73.0385139,18.9051562 C73.0385139,18.7859675 73.1042635,18.7309574 73.2263701,18.7309574 L77.6785635,18.7309574 C77.8945982,18.7401257 77.9227766,18.7584625 77.9227766,18.9601663 C77.9321694,19.1435335 77.9321694,19.3269007 77.9227766,19.5102679 C77.9133838,19.7028034 77.8945982,19.7211401 77.6973491,19.7303085 C77.3967791,19.7394769 77.1056019,19.7303085 76.8050319,19.7303085 L74.6071136,19.7303085 C74.287758,19.7303085 74.2689724,19.7578136 74.2595795,20.0603694 L74.2595795,20.9588686 C74.2595795,21.2614244 74.287758,21.2889295 74.5977208,21.2889295 L77.4155647,21.2889295 C77.5564569,21.2797612 77.6409922,21.3439397 77.6409922,21.4906334 L77.6409922,22.0957451 C77.6409922,22.2241021 77.5752425,22.2882807 77.4437431,22.2882807 L74.5695424,22.2882807 C74.3159364,22.297449 74.2689724,22.3341224 74.2689724,22.5816681 C74.2595795,23.012581 74.2595795,23.4526622 74.2689724,23.8835751 C74.2689724,24.1494575 74.3065436,24.1769626 74.588328,24.1769626 L77.8476341,24.1769626 C77.9791335,24.1769626 78.0448832,24.2319728 78.0448832,24.3694981 L78.0448832,24.9746098 C78.0448832,25.1213036 77.9697407,25.1854821 77.8288485,25.1854821 L73.433012,25.1854821 C73.029121,25.1854821 73.029121,25.1854821 73.029121,24.7729059 C73.0385139,23.8377333 73.0385139,22.884224 73.0385139,21.939883 L73.0385139,21.939883 Z M11.9569776,25.1854821 L10.7453047,25.1854821 C10.6138053,25.1854821 10.5574484,25.0937985 10.5198772,24.9929465 C10.3977706,24.6812223 10.275664,24.3603298 10.1441647,24.0486056 C10.0126653,23.727713 10.0126653,23.727713 9.64634557,23.727713 L7.57053389,23.727713 C7.25117825,23.727713 7.25117825,23.727713 7.1384645,24.0119321 C7.01635793,24.3328247 6.89425136,24.6445489 6.7815376,24.9654415 C6.72518072,25.1396403 6.62185978,25.2038188 6.43400352,25.2038188 C6.09586225,25.1946504 5.74832817,25.2038188 5.36322284,25.2038188 C5.42897253,25.02962 5.46654378,24.901263 5.51350785,24.7820743 C6.1991832,23.0584228 6.89425136,21.3347713 7.57992671,19.6111198 C7.67385484,19.3910792 7.75839015,19.1618702 7.84292547,18.9326613 C7.88988953,18.7951359 7.98381766,18.7401257 8.13410267,18.7401257 C8.42527988,18.7492941 8.70706427,18.7401257 8.99824147,18.7401257 C9.31759711,18.7401257 9.31759711,18.7401257 9.43031087,19.0243449 C9.93752277,20.252905 10.4353419,21.4722967 10.9425538,22.7008568 C11.2431238,23.4251572 11.534301,24.1494575 11.834871,24.8737579 C11.8818351,24.9471048 11.9100135,25.0387883 11.9569776,25.1854821 L11.9569776,25.1854821 Z M7.7208189,22.655015 L9.53363181,22.655015 C9.524239,22.3891326 8.78220677,20.4454405 8.63192176,20.2437366 C8.48163675,20.3995987 7.74899734,22.3249541 7.7208189,22.655015 Z M65.9375472,25.1396403 C65.8436191,25.157977 65.7778694,25.1854821 65.7121197,25.1854821 L64.8198025,25.1854821 C64.641339,25.1946504 64.5474109,25.1121352 64.491054,24.9562731 C64.3689475,24.6170438 64.2186625,24.2961513 64.0965559,23.956922 C64.0308062,23.7827232 63.9368781,23.7185447 63.7490218,23.7185447 C62.9975968,23.727713 62.2461717,23.727713 61.4947467,23.7185447 C61.3068904,23.7185447 61.2129623,23.7827232 61.1472126,23.956922 C61.0344988,24.2961513 60.8936066,24.6262122 60.7715001,24.9654415 C60.724536,25.0937985 60.6681791,25.1854821 60.5085013,25.1854821 C60.1797529,25.1854821 59.8510044,25.1854821 59.5316488,25.1763137 C59.4940775,25.1763137 59.4565063,25.157977 59.3907566,25.1396403 C59.418935,25.0479567 59.4377206,24.9654415 59.4658991,24.8920946 L61.8328879,18.950998 C61.8986376,18.7767992 61.9925658,18.7126207 62.180422,18.7126207 C62.4715992,18.721789 62.7533836,18.7309574 63.0445608,18.7126207 C63.2605955,18.7034523 63.3639165,18.7951359 63.439059,18.9785031 C63.9086996,20.1428847 64.3877331,21.3072662 64.8667665,22.4716478 C65.1861222,23.2601267 65.5148706,24.0486056 65.8342263,24.8370844 C65.8717975,24.9379364 65.899976,25.02962 65.9375472,25.1396403 L65.9375472,25.1396403 Z M63.5517727,22.655015 C63.5423799,22.5724998 63.5423799,22.4991529 63.5235943,22.4441428 C63.2699883,21.7656842 63.0163824,21.0872256 62.7533836,20.4179354 C62.7252052,20.3537569 62.6782411,20.2987468 62.5937058,20.1703897 C62.4152424,20.6288077 62.2649573,21.0230471 62.1240652,21.4172866 C61.983173,21.8206943 61.7859239,22.2057654 61.7013886,22.655015 L63.5517727,22.655015 Z M18.6354144,22.8933923 C19.0486981,23.0217494 19.4244107,23.140938 19.8283016,23.2692951 C19.6404454,23.9752587 19.3023041,24.543697 18.6823784,24.9195997 C17.6773474,25.5247114 15.789392,25.5338797 14.7937538,24.2961513 C14.4650054,23.8835751 14.2489707,23.4251572 14.1550426,22.9117291 C14.032936,22.2424389 14.0423288,21.5731487 14.1926138,20.9038584 C14.483791,19.565278 15.5733573,18.6301054 17.0386362,18.6117687 C17.4425271,18.6026003 17.8464181,18.6301054 18.2409162,18.7584625 C19.0111269,19.0243449 19.5277316,19.537773 19.7719447,20.2895784 C19.7813375,20.3262518 19.7813375,20.3629253 19.7813375,20.4087671 C19.55591,20.5371241 19.3116969,20.5554608 19.0768766,20.610471 C18.9265916,20.6471444 18.7481281,20.7204913 18.6260216,20.6746495 C18.5227006,20.637976 18.4757365,20.4454405 18.400594,20.3262518 C18.1375953,19.922844 17.7806684,19.6844667 17.2828493,19.6569616 C16.3717464,19.6019515 15.7518208,20.0053593 15.5263933,20.867185 C15.3197514,21.6556639 15.3291442,22.4533111 15.592143,23.2326216 C15.9208914,24.1769626 17.0292433,24.4795184 17.7712756,24.0944474 C18.1563809,23.9019118 18.3630228,23.5718509 18.5133078,23.1867798 C18.550879,23.1042646 18.5884503,23.012581 18.6354144,22.8933923 L18.6354144,22.8933923 Z M21.9510774,18.7309574 L23.1439646,18.7309574 C23.275464,18.7309574 23.3318209,18.8134726 23.3693921,18.9234929 C23.5290699,19.3727425 23.6887478,19.8128237 23.8390328,20.2620733 C24.1865668,21.2430877 24.5247081,22.2332705 24.8722422,23.2142849 C24.9098134,23.3059685 24.9473847,23.3976521 24.9943488,23.5076724 C25.1446338,23.4343255 25.1540266,23.3243052 25.182205,23.2234533 C25.6518457,21.8390311 26.1214863,20.4637772 26.591127,19.079355 C26.6005198,19.0426816 26.6099126,19.0060081 26.6286982,18.9693347 C26.7132335,18.7401257 26.7226264,18.7309574 26.9668395,18.721789 L27.793407,18.721789 C27.8591567,18.721789 27.9249064,18.7401257 28.0188345,18.7492941 C27.9624777,18.9326613 27.9061208,19.0976917 27.8497639,19.2535538 C27.1828742,21.0780573 26.5159845,22.9025607 25.8397019,24.7270641 C25.6518457,25.2313239 25.736381,25.1763137 25.1728122,25.1763137 C24.9567775,25.1763137 24.7407428,25.1671454 24.5247081,25.1763137 C24.3462447,25.1854821 24.2523165,25.1121352 24.1959597,24.9471048 C23.9517465,24.2778146 23.6981406,23.6085243 23.4539274,22.9300658 C22.9842868,21.6373272 22.5052533,20.3537569 22.0356127,19.0610183 C22.0262199,18.9785031 21.9980414,18.8684828 21.9510774,18.7309574 L21.9510774,18.7309574 Z M21.2466164,15.0269404 C22.0825767,13.3032889 22.8997515,11.5979741 23.7357118,9.86515425 C24.5434937,10.1493734 25.3043116,10.4702659 26.1027007,10.7819901 C25.9430229,11.1303878 25.7927379,11.442112 25.6424529,11.7538362 C25.03192,13.0190697 24.4119944,14.2843033 23.8014615,15.5403685 C23.7920687,15.5678735 23.7732831,15.5953786 23.7638903,15.6228837 C23.6417837,15.861261 23.6323909,15.8704294 23.3787849,15.7879141 C22.7306808,15.5678735 22.0919695,15.3478329 21.4532583,15.1277923 C21.3875086,15.1094556 21.3405445,15.0819505 21.2466164,15.0269404 L21.2466164,15.0269404 Z M35.1104084,21.9857248 L35.1104084,19.1527019 C35.1104084,18.7767992 35.1104084,18.7767992 35.5049065,18.7767992 C35.7115484,18.7767992 35.9181903,18.7676308 36.1248322,18.7767992 C36.331474,18.7859675 36.3502597,18.8134726 36.3690453,19.0243449 L36.3690453,23.85607 C36.3784381,24.1586259 36.3972237,24.1769626 36.7165794,24.1769626 L39.5626017,24.1769626 C39.6847083,24.1769626 39.750458,24.2228044 39.750458,24.3511614 L39.750458,25.0204516 C39.750458,25.1213036 39.6941011,25.1763137 39.5813873,25.1854821 C39.5250305,25.1854821 39.4592808,25.1946504 39.4029239,25.1946504 L35.279479,25.1946504 C35.1573724,25.1946504 35.1010155,25.1213036 35.1010155,25.0112833 L35.1010155,24.8095794 C35.1104084,23.8652384 35.1104084,22.9300658 35.1104084,21.9857248 L35.1104084,21.9857248 Z M13.4975457,21.9582197 L13.4975457,24.9929465 C13.4975457,25.1121352 13.4411888,25.1763137 13.3190822,25.1763137 L12.426765,25.1763137 C12.2952656,25.1763137 12.2295159,25.1029669 12.2295159,24.9746098 L12.2295159,24.7454009 L12.2295159,19.1343652 L12.2295159,19.1068601 C12.2295159,18.721789 12.2295159,18.721789 12.624014,18.721789 C12.8400487,18.721789 13.0560834,18.7126207 13.2721181,18.721789 C13.4599744,18.7309574 13.4881528,18.7584625 13.4975457,18.950998 C13.5069385,19.2810589 13.4975457,19.6111198 13.4975457,19.9320124 L13.4975457,21.9582197 L13.4975457,21.9582197 Z M21.565972,6.28949425 C22.0637911,5.76689779 22.5334318,5.26263805 23.0406437,4.74004159 C23.9517465,5.45517359 24.8346709,6.16113723 25.7175954,6.85793251 C25.6142744,7.07797312 24.6749931,8.09566097 24.3086734,8.37071174 C23.3975706,7.70142153 22.5052533,6.99545789 21.565972,6.28949425 L21.565972,6.28949425 Z M24.581065,3.75902718 C23.7075334,3.03472682 22.8809658,2.3470999 22.0543983,1.65947297 C22.1577192,1.430264 23.1345718,0.348397641 23.4821059,0.0825152307 C24.3180662,0.779310512 25.1540266,1.49444251 26.0087726,2.23707959 C25.5391319,2.76884441 25.0788841,3.24559908 24.581065,3.75902718 Z" id="形状"></path>
                </g>
            </g>
        </g>
    </g>
</svg>